<?xml version="1.0" encoding="UTF-8"?>
<svg id="Layer_1" data-name="Layer 1" xmlns="http://www.w3.org/2000/svg" viewBox="0 0 600 1200">
  <defs>
    <style>
      .cls-1 {
        fill: #1a1a1a;
      }

      .cls-1, .cls-2 {
        stroke-width: 0px;
      }

      .cls-2 {
        fill: #fff;
      }
    </style>
  </defs>
  <g id="_2" data-name="2">
    <rect class="cls-1" x="-.16" y="-.29" width="916.89" height="1200.29"/>
    <g>
      <path class="cls-2" d="M457.61,1200c-152.86,0-305.58-.44-457.1-1.33H-.16s0-.67,0-.67C3.55,808.55,1.73,412.56-.03,29.61L-.16-.29h.67c301.43,1.74,609.28,1.74,915.01,0h.67s0,.67,0,.67c-.22,168.6,0,340.03.22,505.81.3,226.75.6,461.22-.22,691.81v.66s-.66,0-.66,0c-152.07.89-305.07,1.33-457.93,1.33ZM1.19,1197.34c302.59,1.77,609.99,1.77,913.68,0,.82-230.37.51-464.62.21-691.15-.22-165.56-.44-336.76-.22-505.14C609.57,2.78,302.18,2.78,1.18,1.05l.13,28.56c1.76,382.75,3.57,778.49-.12,1167.73Z"/>
      <path class="cls-2" d="M783.76,1179.6c-47.96,0-95.86-2.21-142.94-4.39-45.42-2.1-92.4-4.27-138.35-4.39-58.52-.16-118.09,2.06-175.7,4.21-106.98,3.98-217.61,8.1-326.08-2.81l.13-1.32c108.37,10.9,218.95,6.78,325.89,2.8,57.62-2.15,117.19-4.39,175.75-4.21,45.98.12,92.97,2.29,138.41,4.4,90.36,4.18,183.79,8.5,274.66-2.99l.17,1.32c-43.61,5.51-87.8,7.39-131.95,7.39Z"/>
      <path class="cls-2" d="M805.98,1157.98c-45.44,0-90.93-4.87-135.6-9.65-44.45-4.76-90.41-9.67-135.36-9.68h-.32c-63.68,0-128.23,4.75-190.66,9.34-112.42,8.27-228.66,16.82-343.17-2.24l.22-1.31c114.36,19.03,230.52,10.48,342.86,2.22,62.45-4.59,127.03-9.34,190.76-9.34h.32c45.02.01,91.02,4.93,135.5,9.69,80.76,8.64,164.27,17.57,245-2.56l.32,1.29c-36.25,9.04-73.04,12.24-109.87,12.24Z"/>
      <path class="cls-2" d="M162.04,1136.18c-55.88,0-108.76-5.62-161.01-16.91l.28-1.3c95.52,20.63,193.2,22.3,307.41,5.26,126.28-18.85,199-21.87,248.24-22.4,45.97-.46,91.7,8.23,135.95,16.66,72.57,13.83,147.61,28.13,222.58.5l.46,1.25c-75.31,27.76-150.54,13.43-223.29-.44-44.18-8.42-89.87-17.13-135.68-16.63-93.66,1.01-181.77,12.49-248.06,22.38-51.92,7.75-100.43,11.63-146.88,11.63Z"/>
      <path class="cls-2" d="M161.66,1112.95c-55.04,0-107.88-6.72-160.48-20.16l.33-1.29c104.52,26.7,209.98,26.82,331.88.36,95.33-20.69,167.41-29.67,241.01-30.04.41,0,.81,0,1.22,0,45.38,0,88.83,12.67,130.86,24.94,69.89,20.39,135.91,39.64,208.98,4.78l.57,1.2c-73.53,35.09-139.79,15.76-209.93-4.7-41.94-12.24-85.3-24.88-130.49-24.88-.4,0-.81,0-1.21,0-73.5.37-145.5,9.34-240.73,30.01-60.77,13.19-117.47,19.78-172,19.78Z"/>
      <path class="cls-2" d="M830.05,1089.89c-3.52,0-7.05-.11-10.61-.32-28.68-1.73-59.4-10.32-96.65-27.04-4.51-2.02-8.96-4.05-13.39-6.06-41.68-18.94-81.09-36.86-128.96-36.3-81.01.89-152.81,17.09-242.4,42.96-59.09,17.06-114.05,25.74-168,26.54-56.08.82-111.3-6.81-168.73-23.38l.37-1.28c57.3,16.53,112.36,24.14,168.34,23.33,53.83-.8,108.67-9.47,167.65-26.49,89.7-25.9,161.6-42.12,242.76-43.01.69,0,1.38-.01,2.07-.01,47.28,0,86.24,17.7,127.45,36.43,4.42,2.01,8.88,4.03,13.38,6.05,37.11,16.65,67.67,25.2,96.19,26.92,33.6,2.03,64.96-5.56,95.88-23.17l.66,1.16c-27.87,15.88-56.11,23.67-86,23.67Z"/>
      <path class="cls-2" d="M160.86,1066.01c-51.62,0-103.9-8.61-159.44-26.22l.4-1.27c59.11,18.75,114.5,27.27,169.34,26.05,54.91-1.22,109.67-12.22,167.41-33.61,75.76-28.07,154.13-57.06,245.76-56.76,45.66.17,81.25,21.29,118.93,43.66,6.93,4.11,14.09,8.36,21.29,12.46,75.79,43.11,132.85,45.59,190.78,8.27l.72,1.12c-31.49,20.28-63.11,28.7-96.68,25.73-28.89-2.55-59.22-13.35-95.48-33.97-7.21-4.1-14.38-8.36-21.31-12.47-37.52-22.27-72.96-43.3-118.26-43.47-.52,0-1.04,0-1.56,0-90.76,0-168.52,28.81-243.74,56.68-57.88,21.45-112.79,32.47-167.84,33.7-3.44.08-6.88.11-10.33.11Z"/>
      <path class="cls-2" d="M164.34,1045.13c-60.98,0-117.92-16.45-162.82-31.85l.43-1.26c103.45,35.48,162.15,34.33,201.74,29.37,40.42-5.07,81.41-18.01,132.93-41.96,6.05-2.81,12.07-5.63,18.05-8.44,72.09-33.77,140.18-65.67,223.09-64.5,46.71.66,83.22,27.44,118.52,53.34,6.99,5.13,14.22,10.43,21.42,15.45,36.71,25.61,67.55,39.49,97.06,43.68,34.75,4.94,67.62-3.85,100.52-26.87l.76,1.09c-33.18,23.22-66.37,32.08-101.47,27.1-29.72-4.22-60.75-18.17-97.63-43.9-7.21-5.03-14.45-10.34-21.44-15.47-35.14-25.77-71.47-52.42-117.75-53.08-82.61-1.17-150.56,30.66-222.5,64.37-5.98,2.8-12,5.62-18.06,8.44-51.65,24.01-92.77,36.98-133.33,42.07-13.3,1.67-26.5,2.42-39.51,2.42Z"/>
      <path class="cls-2" d="M161.66,1020.85c-58,0-112.57-16.63-160.05-34.08l.46-1.25c60.79,22.34,133.21,43.33,209.45,29.64,38.53-6.92,76.84-22.23,124.23-49.66,7.97-4.61,15.99-9.34,23.74-13.91,66.23-39.04,128.77-75.95,208.95-74.12,47.19,1.06,83.18,32.47,117.99,62.85,7.87,6.87,16.01,13.97,23.99,20.43,37.2,30.1,68.76,46.82,99.29,52.6,36.41,6.9,70.92-2.18,105.49-27.76l.79,1.07c-34.88,25.81-69.73,34.96-106.53,28-30.76-5.83-62.5-22.63-99.88-52.87-8-6.48-16.15-13.58-24.03-20.46-34.63-30.22-70.44-61.47-117.15-62.52-79.82-1.81-142.19,34.99-208.25,73.93-7.76,4.57-15.78,9.3-23.75,13.92-47.52,27.51-85.97,42.88-124.66,49.82-16.91,3.04-33.65,4.38-50.09,4.38Z"/>
      <path class="cls-2" d="M159.74,996.44c-56.24,0-110.51-17.62-158.07-36.19l.48-1.24c110.15,43.01,167.43,39.7,208.93,30.79,50.51-10.84,93.08-38.38,124.53-61.16,6.97-5.05,14.02-10.25,20.84-15.28,59.22-43.69,120.42-88.86,200.32-86.14,46.89,1.6,84.31,39.2,117.33,72.36,8.38,8.42,16.29,16.37,24.18,23.59,27.45,25.16,57.13,50.78,91.64,63.38,41.23,15.06,81.01,6.33,125.2-27.47l.81,1.06c-44.59,34.1-84.77,42.89-126.47,27.66-34.73-12.69-64.53-38.4-92.08-63.65-7.91-7.25-15.83-15.21-24.22-23.64-32.84-32.99-70.06-70.39-116.43-71.97-79.39-2.7-140.45,42.33-199.48,85.88-6.82,5.03-13.87,10.24-20.85,15.29-31.55,22.86-74.28,50.5-125.03,61.39-17.3,3.71-34.55,5.34-51.62,5.34Z"/>
      <path class="cls-2" d="M156.84,972.07c-53.29,0-105.59-17.89-155.11-38.33l.51-1.23c65.71,27.12,136.33,49.75,207.5,31.82,38.64-9.74,74.88-30.89,117.5-68.59,8.56-7.57,17.29-15.63,25.73-23.41,52.99-48.88,107.77-99.39,184.25-96.62,50.28,1.85,89.99,46.1,125.03,85.14,9.31,10.37,18.1,20.17,26.68,28.71,28.19,28.05,58.76,56.65,95.26,71.11,42.88,16.98,84.45,8.05,130.82-28.1l.82,1.05c-46.78,36.47-88.77,45.46-132.13,28.28-36.74-14.55-67.42-43.25-95.71-71.4-8.61-8.56-17.41-18.38-26.73-28.76-34.86-38.84-74.37-82.87-124.09-84.7-75.9-2.79-130.51,47.57-183.3,96.27-8.45,7.79-17.18,15.85-25.76,23.43-42.79,37.84-79.2,59.09-118.05,68.88-17.8,4.49-35.58,6.45-53.23,6.45Z"/>
      <path class="cls-2" d="M154,947.5c-53.89,0-105.94-20.16-152.22-40.29l.53-1.22c61.42,26.72,133.01,53.49,205.42,32.84,48.9-13.95,85.66-48.96,115.17-81.37,7.3-8.02,14.53-16.34,22.17-25.16,45.75-52.72,97.61-112.46,173.46-108.62,50.99,2.59,93.66,54.38,127.95,96,9.32,11.31,18.12,22,26.41,30.92,32.42,34.9,64.84,67.6,104.84,84.17,45.01,18.65,88.6,9.52,137.2-28.73l.82,1.05c-32.66,25.71-63.12,38.37-93.26,38.37-15.09,0-30.09-3.17-45.27-9.46-40.25-16.68-72.78-49.49-105.31-84.5-8.32-8.95-17.13-19.65-26.46-30.98-34.12-41.42-76.58-92.96-126.99-95.52-75.2-3.79-126.83,55.68-172.39,108.17-7.65,8.82-14.88,17.14-22.2,25.18-29.63,32.55-66.56,67.71-115.79,81.75-18.14,5.17-36.22,7.39-54.1,7.39Z"/>
      <path class="cls-2" d="M152.5,923.29c-51.96,0-103.98-21.23-150.66-42.59l.55-1.21c64.31,29.44,138.81,58.62,209,32.03,45.39-17.19,77.63-55.06,103.19-89.84,6.61-8.99,13.25-18.66,20.29-28.9,19.26-28.03,41.09-59.8,66.98-83.44,29.75-27.16,60.44-39.52,93.79-37.84,29.93,1.52,54.05,22.79,74.31,42.61,21.31,20.85,40.82,44.08,59.69,66.56,9.29,11.07,18.9,22.51,28.6,33.51,32.64,37.05,65.43,71.98,107.53,92.31,48.73,23.53,96.1,14.96,149.07-26.96l.83,1.05c-53.41,42.28-101.23,50.89-150.47,27.11-42.33-20.44-75.21-55.48-107.95-92.63-9.7-11.01-19.32-22.46-28.62-33.54-18.85-22.45-38.34-45.66-59.6-66.46-20.09-19.65-43.98-40.74-73.45-42.23-32.99-1.65-63.35,10.59-92.83,37.5-25.78,23.53-47.56,55.24-66.78,83.21-7.04,10.25-13.69,19.92-20.31,28.93-25.67,34.93-58.07,72.98-103.79,90.3-19.57,7.41-39.47,10.53-59.37,10.53Z"/>
      <path class="cls-2" d="M150.9,898.84c-50.51,0-102.35-22.25-149.02-44.67l.58-1.2c64.61,31.04,139.13,61.76,206.01,33.19,43.89-18.74,72.64-59.47,94.97-96.84,6.29-10.52,12.67-22.44,19.43-35.06,32.7-61.05,73.39-137,147.1-134.37,32.75,1.19,58.99,26.02,83.07,51.35,20.74,21.83,39.97,45.67,58.56,68.73,10.97,13.6,22.31,27.67,33.83,41.16,34.13,39.96,68.44,77.64,112.81,99.61,51.04,25.28,100.77,16.47,156.51-27.73l.83,1.04c-56.19,44.56-106.37,53.41-157.93,27.88-44.6-22.09-79.01-59.88-113.23-99.94-11.53-13.5-22.88-27.58-33.85-41.19-18.57-23.04-37.78-46.86-58.49-68.65-23.89-25.13-49.9-49.77-82.15-50.93-72.88-2.68-113.36,72.94-145.88,133.67-6.77,12.63-13.16,24.57-19.46,35.11-22.45,37.55-51.36,78.49-95.6,97.38-18.9,8.07-38.4,11.46-58.09,11.46Z"/>
      <path class="cls-2" d="M148.89,874.7c-53.51,0-107.62-27.24-146.97-47.05l.6-1.19c53.37,26.87,134.03,67.47,202.97,34.67,43.45-20.67,69.05-65.29,90.24-110.42,4.76-10.13,9.69-22.12,14.91-34.81,26.08-63.45,61.82-150.35,135.28-147.57,34.69,1.3,64.89,34.05,84.87,55.73,22.24,24.12,42.75,50.47,62.58,75.96,10.76,13.83,21.89,28.13,33.15,41.89,30.22,36.92,71.61,87.48,124.07,113.45,53.68,26.57,105.8,17.41,164.02-28.84l.83,1.04c-58.67,46.61-111.24,55.82-165.44,28.99-52.71-26.09-94.21-76.78-124.51-113.8-11.27-13.77-22.41-28.08-33.17-41.91-19.82-25.46-40.31-51.79-62.51-75.87-19.84-21.51-49.81-54.01-83.94-55.3-72.6-2.71-108.07,83.67-134,146.75-5.23,12.71-10.16,24.71-14.93,34.88-21.3,45.36-47.05,90.21-90.88,111.06-18.49,8.8-37.79,12.37-57.17,12.37Z"/>
      <path class="cls-2" d="M147.6,850.35c-52.33,0-106.2-28.42-145.65-49.22l.62-1.18c54.81,28.91,137.64,72.6,204.84,33.61,41.6-24.13,62.42-73.33,78.68-117.55,3.8-10.35,7.74-23.29,11.9-36.99,10.04-33.03,22.53-74.14,41.43-106.16,22.21-37.64,48.72-55.52,81.12-54.7,34.74.89,65.98,35.32,86.65,58.11,24.33,26.82,46.59,56.22,68.12,84.66,11.43,15.09,23.24,30.7,35.21,45.72,38.31,48.05,76.84,93.45,126.86,120.93,56.84,31.22,114.77,22.19,177.12-27.59l.83,1.04c-62.81,50.15-121.23,59.22-178.59,27.71-50.24-27.59-88.87-73.11-127.26-121.27-11.98-15.03-23.8-30.64-35.23-45.74-21.51-28.41-43.75-57.79-68.04-84.57-20.52-22.62-51.53-56.8-85.7-57.67-31.85-.83-57.99,16.86-79.94,54.05-18.82,31.89-31.28,72.91-41.3,105.87-4.17,13.72-8.11,26.68-11.93,37.07-16.34,44.44-37.28,93.89-79.26,118.25-19.25,11.17-39.75,15.63-60.49,15.63Z"/>
      <path class="cls-2" d="M147.87,826.87c-51.23,0-105.74-30.09-145.87-52.25l.64-1.17c56.9,31.41,142.89,78.87,206.65,33.07,40.64-29.19,56.77-86.51,67.45-124.43,2.85-10.14,5.61-23.02,8.81-37.94,14.9-69.61,37.4-174.66,109.36-174.66.3,0,.6,0,.9,0,36.68.44,69.91,38.82,91.9,64.22l1.45,1.68c24.15,27.87,46.5,57.98,68.11,87.1,12.18,16.41,24.78,33.38,37.55,49.75,41.33,52.97,82.92,102.92,137.18,131.88,58.39,31.17,118.06,21.14,182.4-30.66l.83,1.04c-40.32,32.46-78.85,48.63-116.4,48.63-22.79,0-45.21-5.95-67.47-17.83-54.5-29.09-96.19-79.15-137.61-132.24-12.78-16.38-25.38-33.36-37.57-49.77-21.6-29.1-43.94-59.19-68.05-87.02l-1.45-1.68c-21.83-25.22-54.82-63.33-90.91-63.76-.29,0-.59,0-.88,0-70.9,0-93.25,104.41-108.06,173.61-3.2,14.94-5.96,27.84-8.83,38.02-10.72,38.11-26.93,95.69-67.95,125.16-19.23,13.81-40.42,19.26-62.2,19.26Z"/>
      <path class="cls-2" d="M147.97,803.57c-49.86,0-103.63-31.04-143.11-53.83l-2.81-1.62.67-1.16,2.81,1.62c55.47,32.02,139.29,80.41,200.09,35.31,40.77-30.25,53.37-90.59,62.58-134.66,2.07-9.92,3.92-23.3,6.07-38.78,5.11-36.91,11.46-82.86,25.67-120.68,16.91-45.04,40.63-66.96,72.5-67.01h.08c38.46,0,73.7,42.2,97.02,70.13l2.71,3.24c24.02,28.69,46.41,59.46,68.06,89.22,12.85,17.67,26.14,35.94,39.63,53.57,41.55,54.32,83.48,105.74,139.39,137.9,62.49,35.95,126.27,26.18,194.98-29.85l.84,1.03c-69.19,56.42-133.46,66.22-196.49,29.97-56.13-32.28-98.15-83.81-139.78-138.24-13.49-17.64-26.79-35.92-39.65-53.59-21.64-29.74-44.01-60.5-68.01-89.15l-2.71-3.24c-23.16-27.74-58.16-69.65-96-69.65h-.08c-31.25.05-54.56,21.68-71.26,66.15-14.15,37.69-20.5,83.55-25.59,120.4-2.15,15.51-4,28.9-6.08,38.87-9.25,44.27-21.92,104.9-63.09,135.45-17.96,13.33-37.87,18.61-58.44,18.61Z"/>
      <path class="cls-2" d="M148.86,780.8c-48.77,0-102.07-32.2-141.1-55.77l-5.67-3.42.69-1.14,5.67,3.42c54.21,32.75,136.14,82.24,194.39,38.06,40.97-31.08,50.51-95.07,57.47-141.8l.38-2.56c2.64-17.68,4.72-35.81,6.72-53.35,3.94-34.42,8.02-70.01,16.55-104.12,13.55-54.13,36.14-81.65,67.16-81.78.07,0,.15,0,.22,0,38.91,0,74.25,42.67,97.65,70.92l2.73,3.29c25.83,31.1,49.7,64.59,72.78,96.97,13.49,18.93,27.44,38.5,41.62,57.37,46.61,62.03,90,115.97,148.98,147.9,34.82,18.85,68.9,24.26,104.21,16.54,30.73-6.72,61.77-23.36,94.89-50.86l.85,1.03c-33.29,27.64-64.52,44.37-95.46,51.14-35.62,7.79-70.01,2.34-105.12-16.67-59.22-32.06-102.7-86.12-149.41-148.27-14.19-18.88-28.14-38.46-41.64-57.4-23.06-32.37-46.91-65.84-72.72-96.9l-2.73-3.29c-23.24-28.06-58.35-70.44-96.63-70.44-.07,0-.14,0-.21,0-30.33.12-52.49,27.3-65.87,80.77-8.51,34.03-12.59,69.57-16.52,103.95-2.01,17.55-4.09,35.7-6.73,53.4l-.38,2.56c-7,46.96-16.59,111.26-57.99,142.67-16.76,12.71-35.42,17.79-54.79,17.79Z"/>
      <path class="cls-2" d="M151.08,758.03c-49.21,0-104.43-34.85-141.79-58.42-2.46-1.55-4.84-3.05-7.14-4.49l.71-1.13c2.3,1.44,4.68,2.95,7.14,4.5,52.29,33,139.82,88.22,195.85,37.97,37.79-33.9,43.72-95.16,48.49-144.39l.45-4.62c1.82-18.68,3.04-37.81,4.22-56.32,2.37-37.12,4.81-75.5,12.25-112.48,4.04-20.1,16.34-81.27,61.39-81.99.26,0,.53,0,.8,0,38.79,0,75.57,44.71,97.61,71.49l2.34,2.84c27.66,33.55,53,69.81,77.5,104.89,13.95,19.96,28.37,40.61,43.05,60.5,44.78,60.69,89.93,118.05,149.7,152.86,67.51,39.32,136.36,27.79,210.47-35.25l.86,1.01c-74.6,63.45-143.94,75.02-212,35.39-59.99-34.94-105.24-92.41-150.1-153.22-14.69-19.91-29.12-40.56-43.07-60.53-24.49-35.05-49.81-71.3-77.44-104.8l-2.34-2.84c-21.89-26.6-58.42-71.01-96.58-71.01-.26,0-.51,0-.78,0-29.59.47-49.25,26.94-60.1,80.92-7.42,36.89-9.86,75.22-12.22,112.3-1.18,18.52-2.4,37.66-4.22,56.36l-.45,4.62c-4.79,49.46-10.75,111.01-48.93,145.25-16.46,14.77-35.56,20.58-55.66,20.58Z"/>
      <path class="cls-2" d="M154.21,736.18c-49.35,0-105.58-37.01-143.62-62.06-2.91-1.92-5.7-3.75-8.36-5.49l.73-1.12c2.67,1.74,5.46,3.58,8.37,5.49,53.29,35.08,142.47,93.79,197.42,40.23,36.1-35.2,39.38-101.12,41.78-149.26.16-3.18.31-6.3.47-9.33.98-18.55,1.43-37.5,1.86-55.84.89-37.59,1.8-76.47,7.35-114.22,3.42-23.29,12.52-85.15,57.57-85.96.33,0,.67,0,.99,0,40.57,0,76.43,44.85,100.22,74.61l2.83,3.53c27.62,34.44,52.99,71.49,77.52,107.33,15.36,22.43,31.23,45.63,47.5,67.93,46.5,63.77,93.46,123.86,156.64,158.18,67.31,36.57,136.19,22.61,210.56-42.69l.88,1c-47.8,41.97-93.38,62.85-137.75,62.85-25.1,0-49.8-6.68-74.32-20-63.42-34.45-110.49-94.66-157.08-158.56-16.28-22.32-32.16-45.53-47.52-67.97-24.52-35.81-49.87-72.85-77.46-107.24l-2.83-3.53c-23.83-29.8-59.9-74.87-100.16-74.1-39.37.71-50.97,48.75-56.27,84.82-5.54,37.67-6.45,76.5-7.34,114.05-.43,18.34-.88,37.31-1.86,55.88-.16,3.03-.32,6.15-.47,9.33-2.41,48.36-5.7,114.58-42.18,150.15-16.19,15.78-35.25,21.99-55.46,21.99Z"/>
      <path class="cls-2" d="M158.82,714.82c-50.58,0-110-40.77-146.8-66.02-3.43-2.35-6.67-4.58-9.71-6.64l.75-1.1c3.04,2.06,6.29,4.29,9.72,6.64,51.21,35.14,146.52,100.55,199.6,42.95,33.99-36.88,35.33-98.76,36.4-148.48.07-3.32.14-6.58.22-9.76.52-20.91.28-42.31.06-63-.45-40.46-.91-82.3,4.23-122.93,2.01-15.89,5.3-36.25,12.98-52.76,9.2-19.8,22.92-30.08,40.77-30.54.47-.01.94-.02,1.41-.02,41.33,0,77.63,46.8,101.75,77.88l3.35,4.31c27.15,34.84,52.15,72.18,76.32,108.29,14.88,22.23,30.27,45.22,46,67.38,45.37,63.92,91.18,124.4,152.61,161.95,38.48,23.52,78.38,30.49,118.6,20.73,34.58-8.39,70.54-29.47,106.89-62.64l.9.98c-36.52,33.33-72.68,54.51-107.48,62.95-40.58,9.85-80.82,2.82-119.61-20.89-61.65-37.68-107.55-98.28-153-162.31-15.74-22.17-31.13-45.17-46.02-67.41-24.16-36.09-49.14-73.4-76.26-108.21l-3.35-4.31c-24.23-31.22-60.8-78.45-102.07-77.35-37.41.97-47.68,44.4-52.46,82.14-5.13,40.54-4.67,82.33-4.22,122.75.23,20.71.47,42.12-.06,63.05-.08,3.18-.15,6.44-.22,9.76-1.08,49.94-2.43,112.1-36.75,149.35-15.41,16.72-34.26,23.27-54.53,23.27Z"/>
      <path class="cls-2" d="M164.6,694.36c-51.74,0-113.58-44.06-151.77-71.28-3.72-2.65-7.21-5.13-10.41-7.38l.76-1.09c3.21,2.25,6.69,4.73,10.42,7.39,52.79,37.62,151.06,107.64,204.07,47.6,32.32-36.61,32.31-100.65,32.31-147.41,0-3.37,0-6.66.01-9.86.08-22.86-.72-46.19-1.49-68.76-1.41-41.17-2.86-83.74.91-125.34,2.3-25.39,7.68-84.85,52.03-85.78.4,0,.8-.01,1.19-.01,42.85,0,79,48.09,102.99,80.01l3.45,4.58c26.6,35.22,51.13,72.8,74.85,109.14,16.08,24.64,32.71,50.11,49.83,74.61,37.2,53.25,88.15,126.17,157.12,165.44,71.28,40.58,144.24,23.7,223.03-51.62l.92.96c-51.33,49.07-100.23,73.47-147.84,73.47-25.92,0-51.44-7.23-76.78-21.66-69.23-39.42-120.28-112.48-157.55-165.83-17.13-24.52-33.76-50-49.85-74.65-23.71-36.33-48.23-73.89-74.8-109.07l-3.45-4.58c-23.84-31.71-59.75-79.48-101.93-79.48-.39,0-.77,0-1.16.01-43.16.9-48.47,59.53-50.73,84.57-3.76,41.52-2.31,84.05-.9,125.17.77,22.58,1.57,45.93,1.49,68.81-.01,3.2-.01,6.49-.01,9.85,0,46.97.01,111.31-32.64,148.29-15.13,17.13-33.82,23.88-54.06,23.88Z"/>
      <path class="cls-2" d="M164.5,667.75c-51.7,0-113.5-44.06-151.67-71.27-3.73-2.66-7.21-5.14-10.42-7.39l.76-1.09c3.21,2.25,6.69,4.74,10.42,7.39,52.77,37.62,150.98,107.64,203.91,47.59,32.27-36.61,32.22-100.63,32.19-147.38,0-3.38,0-6.68,0-9.89.06-22.86-.75-46.21-1.53-68.78-1.43-41.16-2.91-83.73.82-125.32,2.28-25.39,7.61-84.84,51.92-85.78,43.46-.93,80.05,47.79,104.31,80.02l3.44,4.56c26.63,35.22,51.19,72.82,74.95,109.17,16.09,24.63,32.73,50.09,49.85,74.58,37.23,53.25,88.23,126.17,157.25,165.44,71.34,40.59,144.34,23.7,223.19-51.62l.92.96c-51.36,49.06-100.3,73.47-147.93,73.47-25.94,0-51.48-7.23-76.83-21.66-69.28-39.42-120.37-112.48-157.68-165.83-17.14-24.51-33.78-49.98-49.88-74.62-23.74-36.34-48.29-73.91-74.89-109.1l-3.44-4.57c-24.09-32.01-60.55-80.42-103.21-79.49-43.12.91-48.38,59.54-50.62,84.57-3.73,41.51-2.25,84.03-.82,125.16.78,22.59,1.6,45.94,1.53,68.83,0,3.21,0,6.51,0,9.88.04,46.96.09,111.27-32.52,148.26-15.11,17.14-33.79,23.88-54.01,23.88Z"/>
      <path class="cls-2" d="M157.81,635.22c-14.43,0-30.5-3.34-48.14-10.02-35.9-13.6-71.19-37.95-96.96-55.73-3.69-2.55-7.17-4.95-10.41-7.15l.75-1.1c3.24,2.2,6.73,4.61,10.42,7.16,25.71,17.74,60.92,42.03,96.67,55.58,42.09,15.95,75.07,12.67,98.03-9.75,35.97-35.12,37.26-100.93,38.21-148.99.06-2.83.11-5.6.17-8.3.49-22.1.16-44.67-.16-66.49-.55-37.9-1.13-77.09,2.57-115.37,2.83-29.3,8.72-90.27,53.77-91.42.48-.01.96-.02,1.43-.02,42.1,0,78.98,47.34,103.48,78.78,1.28,1.64,2.51,3.23,3.71,4.75,27.02,34.49,51.96,71.42,76.07,107.14,15.85,23.47,32.24,47.74,49.06,71.08,46.5,64.53,93.47,125.41,156.59,161.03,70.94,40.04,143.18,25.26,220.85-45.18l.89.99c-49.66,45.03-97.14,67.44-143.5,67.44-26.6,0-52.83-7.37-78.9-22.09-63.35-35.75-110.42-96.75-157.02-161.41-16.83-23.36-33.23-47.64-49.08-71.12-24.1-35.69-49.03-72.61-76.02-107.06-1.2-1.53-2.44-3.12-3.71-4.76-24.61-31.59-61.78-79.36-103.83-78.25-43.88,1.12-49.69,61.3-52.48,90.22-3.69,38.21-3.12,77.36-2.56,115.22.32,21.84.65,44.41.16,66.54-.06,2.7-.12,5.47-.17,8.3-.95,48.29-2.25,114.41-38.61,149.91-13.69,13.37-30.86,20.06-51.29,20.06Z"/>
      <path class="cls-2" d="M152.07,602.82c-13.33,0-27.98-2.75-43.93-8.27-35.91-12.42-71.5-36.09-97.49-53.38-2.95-1.96-5.77-3.84-8.45-5.6l.73-1.11c2.68,1.77,5.51,3.64,8.45,5.6,25.93,17.25,61.45,40.87,97.19,53.23,42.59,14.73,74.59,10.04,97.85-14.33,33.37-34.98,35.82-97.87,37.61-143.79.13-3.21.25-6.36.38-9.42.85-20.09,1.01-40.63,1.17-60.5.29-36.94.59-75.13,5.31-112.29,3.3-25.93,11.02-86.64,55.07-88.18,41.47-1.45,80.84,47.01,104.4,75.96,1.24,1.52,2.44,3,3.6,4.42,27.77,33.96,53.36,70.54,78.09,105.9,14.62,20.89,29.73,42.5,45.12,63.32,48.07,65.02,96.54,126.29,160.8,161.51,69.2,37.93,139.86,24.37,216.03-41.45l.87,1.01c-48.45,41.87-94.72,62.71-139.82,62.72-26.23,0-52.06-7.05-77.71-21.11-64.5-35.35-113.07-96.75-161.23-161.89-15.4-20.84-30.52-42.45-45.14-63.35-24.72-35.35-50.29-71.9-78.03-105.82-1.16-1.42-2.36-2.9-3.61-4.42-23.4-28.76-62.58-76.83-103.32-75.47-42.93,1.5-50.54,61.42-53.8,87.01-4.72,37.08-5.01,75.24-5.3,112.14-.16,19.88-.32,40.43-1.17,60.55-.13,3.06-.25,6.21-.38,9.42-1.8,46.13-4.27,109.31-37.98,144.66-14.58,15.28-33.09,22.94-55.31,22.94Z"/>
      <path class="cls-2" d="M147.01,571.75c-47.27,0-100.87-34.55-137.16-57.94-2.69-1.73-5.28-3.4-7.76-4.99l.72-1.12c2.48,1.59,5.08,3.26,7.77,4.99,50.9,32.81,136.09,87.72,189.04,37.32,35.73-34.01,39.75-94.31,42.97-142.76l.43-6.38c1.29-18.89,1.96-38.21,2.61-56.91,1.28-36.9,2.61-75.06,8.71-112.02,5.71-34.58,17.77-80.71,56.44-82.14,40.2-1.49,79.71,44.5,103.33,71.97l2.12,2.46c29.07,33.77,55.74,70.44,81.54,105.89,14.31,19.68,29.11,40.02,44.14,59.62,46.6,60.77,93.53,118.2,155.23,153.01,69.8,39.38,140.75,27.9,216.92-35.08l.85,1.03c-47.02,38.88-92.09,58.24-136.13,58.24-27.76,0-55.11-7.69-82.3-23.03-61.91-34.93-108.94-92.47-155.63-153.36-15.04-19.61-29.85-39.97-44.16-59.65-25.78-35.44-52.43-72.08-81.47-105.81l-2.12-2.46c-23.46-27.29-62.76-72.98-102.27-71.51-37.7,1.39-49.54,46.91-55.18,81.02-6.09,36.87-7.41,74.98-8.7,111.84-.65,18.7-1.32,38.04-2.61,56.95l-.43,6.38c-3.24,48.68-7.27,109.27-43.38,143.64-15.67,14.91-34.06,20.77-53.52,20.77Z"/>
      <path class="cls-2" d="M143.08,541.07c-46.6,0-98.86-32.63-134.19-54.69-2.37-1.48-4.67-2.92-6.9-4.3l.7-1.13c2.22,1.38,4.53,2.82,6.9,4.3,49.3,30.78,131.8,82.29,184.87,35.94,36.26-31.67,42.51-92.1,47.08-136.22l.32-3.1c1.98-19.09,3.27-38.65,4.52-57.56,2.23-33.87,4.55-68.89,10.92-102.73,6.62-35.16,20.02-82.02,59.83-83.04,41.84-1.07,81.15,43.5,107.15,73l2.17,2.46c27.3,30.92,52.7,64.29,77.27,96.57,15.19,19.95,30.89,40.58,46.88,60.41,45.92,56.96,92.12,110.74,152.32,142.85,68.25,36.4,137.33,25.64,211.19-32.89l.83,1.04c-45.69,36.2-89.58,54.23-132.59,54.24-26.96,0-53.56-7.08-80.06-21.21-60.43-32.23-106.73-86.12-152.73-143.19-16-19.84-31.71-40.48-46.9-60.44-24.55-32.25-49.94-65.6-77.21-96.49l-2.17-2.46c-25.84-29.31-64.89-73.6-106.12-72.55-38.84,1-52.02,47.25-58.55,81.95-6.36,33.76-8.67,68.75-10.9,102.58-1.25,18.93-2.54,38.5-4.53,57.61l-.32,3.09c-4.59,44.34-10.88,105.07-47.53,137.08-15.49,13.53-33.42,18.87-52.26,18.87Z"/>
      <path class="cls-2" d="M139.26,510.58c-12.38,0-25.84-2.23-40.48-6.69-33.46-10.19-65.94-29.82-92.03-45.6l-4.86-2.94.69-1.14,4.86,2.94c26.03,15.74,58.43,35.32,91.73,45.46,39.29,11.96,69.99,7.76,93.85-12.86,35.59-30.74,43.39-90.13,49.09-133.49l.6-4.53c1.18-8.94,1.97-21.44,2.89-35.91,4.38-69.12,11.72-184.82,78.75-186.45,40.79-1,79.71,40.3,105.45,67.62l.64.68c28.81,30.58,55.44,64.01,81.19,96.34,14.59,18.32,29.68,37.26,44.98,55.46,44.73,53.18,93.52,107.61,154.63,137.7,65.28,32.13,131.65,21.35,202.93-32.96l.81,1.06c-71.71,54.65-138.55,65.48-204.32,33.1-61.35-30.2-110.24-84.75-155.06-138.04-15.32-18.21-30.41-37.16-45.01-55.48-25.73-32.31-52.34-65.72-81.12-96.26l-.64-.68c-25.28-26.83-63.34-67.22-103.04-67.22-.47,0-.94,0-1.41.02-65.8,1.6-73.09,116.53-77.45,185.2-.92,14.5-1.71,27.02-2.9,36l-.6,4.53c-5.73,43.57-13.57,103.25-49.54,134.32-15.32,13.23-33.38,19.82-54.63,19.82Z"/>
      <path class="cls-2" d="M135.6,480.75c-45.02,0-93.84-28.66-129.66-49.69l-4.14-2.43.67-1.15,4.14,2.43c50.12,29.42,125.86,73.88,180.21,33.02,37.34-28.08,47.55-83.31,55-123.64,1.78-9.65,3.22-22.94,4.88-38.32,3.77-34.97,8.47-78.49,20.6-114.34,14.44-42.67,35.77-63.66,65.22-64.15,41.91-.65,81.91,39.96,108.37,66.87l.15.16c27.41,27.87,52.98,58.3,77.71,87.72,14.43,17.17,29.35,34.93,44.47,51.97,45.02,50.76,90.22,98.7,147.99,127.37,65.62,32.57,132.03,23.05,203.03-29.09l.79,1.07c-71.45,52.47-138.31,62.02-204.41,29.21-57.99-28.78-103.28-76.82-148.4-127.68-15.13-17.06-30.05-34.82-44.49-52-24.72-29.41-50.27-59.82-77.64-87.65l-.15-.15c-26.3-26.74-66.02-67.16-107.4-66.47-28.81.48-49.74,21.17-63.98,63.24-12.08,35.71-16.77,79.15-20.53,114.06-1.66,15.41-3.1,28.72-4.89,38.42-7.49,40.55-17.76,96.07-55.51,124.46-15.94,11.99-33.67,16.76-52.02,16.76Z"/>
      <path class="cls-2" d="M133.15,451.09c-45.09,0-93.6-27.63-129.27-47.94l-2.17-1.23.66-1.16,2.17,1.23c50.34,28.67,126.42,71.99,181.56,30.85,35.6-26.55,47.59-76.67,56.34-113.27,2.38-9.95,4.48-22.94,6.92-37.97,10.53-64.99,26.43-163.21,92.1-164.15.33,0,.66,0,.98,0,40.39,0,78.54,35.72,103.86,59.43,29,27.15,55.85,57.36,81.82,86.58,13.67,15.38,27.8,31.28,42.06,46.52,41.17,44.02,85.99,89.28,141.19,116.63,65.92,32.67,132.3,24.21,202.95-25.86l.77,1.09c-42.9,30.4-84.25,45.55-124.89,45.55-26.7,0-53.09-6.54-79.42-19.58-55.39-27.45-100.31-72.81-141.57-116.92-14.27-15.26-28.41-31.16-42.08-46.55-25.95-29.2-52.78-59.39-81.73-86.49-25.37-23.75-63.76-59.63-103.91-59.06-64.55.93-80.35,98.48-90.8,163.03-2.44,15.06-4.55,28.07-6.94,38.07-8.8,36.8-20.86,87.19-56.84,114.03-16.51,12.31-34.82,17.18-53.74,17.18Z"/>
      <path class="cls-2" d="M131.15,422.01c-13.12,0-27.28-2.26-42.61-6.76-30.97-9.1-61.36-25.91-85.78-39.43l-1.15-.63.64-1.17,1.15.63c24.36,13.48,54.68,30.26,85.51,39.31,36.04,10.59,65.52,8.65,90.12-5.93,36.62-21.69,52.41-66.73,65.44-110.99,2.81-9.55,5.57-21.72,8.5-34.6,6.8-29.97,15.26-67.26,29.91-96.73,17.24-34.68,39.46-51.78,67.95-52.28.4,0,.79-.01,1.19-.01,40.96,0,82.26,36.52,104.56,56.23,28.03,24.78,54.24,52.39,79.59,79.08,12.33,12.98,25.07,26.41,37.86,39.32,45.93,46.41,91.87,90.05,148.78,114.11,63.52,26.85,124.39,17.91,191.58-28.15l.75,1.1c-67.6,46.34-128.88,55.32-192.85,28.27-57.14-24.15-103.18-67.9-149.21-114.4-12.79-12.93-25.54-26.35-37.87-39.34-25.33-26.68-51.52-54.26-79.51-79-22.37-19.78-63.97-56.61-104.84-55.88-27.94.49-49.78,17.35-66.78,51.54-14.58,29.33-23.02,66.54-29.8,96.43-2.93,12.9-5.69,25.09-8.52,34.68-13.11,44.52-29.01,89.82-66.04,111.76-14.44,8.56-30.52,12.82-48.57,12.82Z"/>
      <path class="cls-2" d="M129.49,392.92c-12.89,0-26.72-2.07-41.62-6.22-31.43-8.74-61.88-25.08-86.34-38.21l.63-1.17c24.41,13.1,54.78,29.41,86.07,38.1,35.91,9.98,65.54,7.86,90.58-6.49,35.32-20.24,53.16-62.23,67.11-99.99,3.52-9.54,7.02-20.99,10.71-33.12,17.24-56.51,40.84-133.91,104.24-134.75,37.28-.5,72.05,24.74,101.7,48.44,29.31,23.42,56.57,50.16,82.92,76.02,11.76,11.54,23.92,23.47,36.09,34.93,41.9,39.47,87.36,79.92,141.69,102.8,63.38,26.68,124.13,18.44,191.18-25.96l.73,1.11c-67.46,44.66-128.6,52.95-192.43,26.07-54.54-22.96-100.1-63.5-142.09-103.06-12.18-11.47-24.34-23.41-36.11-34.95-26.34-25.84-53.57-52.56-82.82-75.93-29.47-23.55-64.03-48.65-100.86-48.14-62.43.82-85.87,77.68-102.98,133.8-3.7,12.14-7.2,23.62-10.74,33.19-14.03,37.98-31.98,80.22-67.69,100.68-14.95,8.57-31.49,12.84-49.98,12.84Z"/>
      <path class="cls-2" d="M128.18,364.01c-45.59,0-92.53-24.43-126.74-42.24l.62-1.18c46.75,24.33,117.41,61.1,175.31,30.38,33.06-17.54,52.54-52.04,68.66-86.71,4.56-9.81,9.03-20.98,13.76-32.82,21.62-54.08,48.53-121.39,111.51-121.79.19,0,.39,0,.58,0,37.24,0,72.23,22.21,101.58,43.97,28.64,21.24,55.55,45.57,81.58,69.1,12.34,11.16,25.1,22.7,37.87,33.74,37.26,32.24,81.37,68.38,133.26,89.24,61.61,24.76,123.22,16.55,188.36-25.13l.72,1.12c-40.98,26.21-80.59,39.26-119.68,39.27-23.42,0-46.66-4.68-69.9-14.03-52.08-20.94-96.29-57.16-133.63-89.47-12.78-11.05-25.54-22.6-37.89-33.76-26-23.51-52.89-47.82-81.48-69.02-29.17-21.63-63.93-43.71-100.79-43.71-.19,0-.38,0-.57,0-62.09.39-88.81,67.24-110.29,120.95-4.74,11.85-9.21,23.04-13.79,32.88-16.22,34.88-35.84,69.6-69.24,87.33-15.92,8.45-32.77,11.86-49.81,11.86Z"/>
      <path class="cls-2" d="M126.73,334.98c-46.08,0-92.16-23.19-125.37-39.9l.6-1.19c43.54,21.91,109.35,55.03,167.79,31.88,37.02-14.66,60.01-48.17,79.35-82.19,4.84-8.52,9.56-17.63,14.57-27.28,26.22-50.58,55.95-107.9,118.01-108.24.23,0,.47,0,.7,0,66.11,0,125.68,51.78,178.26,97.49,12.82,11.14,24.92,21.67,36.57,30.94,42.07,33.5,87.58,67.67,140.47,85.14,57.83,19.1,115.7,10.02,176.93-27.74l.7,1.13c-40.76,25.14-80.06,37.63-118.85,37.63-19.82,0-39.51-3.26-59.2-9.76-53.1-17.54-98.72-51.79-140.89-85.36-11.67-9.29-23.79-19.82-36.61-30.97-52.59-45.71-112.19-97.49-178.08-97.16-61.26.34-90.78,57.28-116.83,107.52-5.01,9.66-9.74,18.78-14.59,27.32-19.46,34.23-42.62,67.95-80.02,82.77-14.22,5.63-28.87,7.98-43.5,7.98Z"/>
      <path class="cls-2" d="M126.03,306.29c-41.94,0-84.27-18.32-124.76-37.93l.58-1.2c54.6,26.44,112.55,50.55,168.12,30.19,35.95-13.17,61-43.49,80.78-71.42,5.41-7.64,10.85-15.82,16.11-23.73,31.2-46.91,63.47-95.41,125.22-95.6.14,0,.29,0,.43,0,65.77,0,124.72,45.61,176.74,85.87,12.39,9.59,24.1,18.65,35.69,26.98,40.28,28.95,83.76,58.51,133.36,74.03,58.01,18.15,115.7,9.54,176.36-26.32l.68,1.15c-61.01,36.06-119.05,44.71-177.44,26.44-49.79-15.58-93.37-45.2-133.73-74.22-11.61-8.34-23.33-17.41-35.73-27.01-51.86-40.12-110.62-85.59-175.93-85.59-.14,0-.28,0-.42,0-61.04.18-93.11,48.39-124.12,95.01-5.27,7.92-10.71,16.1-16.13,23.76-35.45,50.07-61.04,64.44-81.41,71.9-14.68,5.38-29.52,7.69-44.4,7.69Z"/>
      <path class="cls-2" d="M126.14,277.33c-43.46,0-86.53-17.85-124.95-35.68l.56-1.21c50.86,23.6,109.91,47.26,166.96,29.15,18.61-5.91,44.7-17.98,81.52-59.28,6.2-6.96,12.36-14.2,18.31-21.2,36.92-43.44,71.8-84.47,133.73-84.54h.19c65.83,0,122.96,38.8,178.2,76.32,12.29,8.35,23.89,16.23,35.58,23.67,55.55,35.39,101.82,55.5,145.59,63.29,53.37,9.49,103.4.52,152.93-27.42l.65,1.16c-49.81,28.1-100.13,37.11-153.82,27.57-43.95-7.82-90.37-27.98-146.07-63.48-11.7-7.45-23.31-15.34-35.61-23.69-55.07-37.41-112.03-76.09-177.45-76.09h-.19c-61.31.07-96,40.87-132.71,84.07-5.96,7.01-12.12,14.26-18.33,21.22-37.03,41.54-63.33,53.7-82.11,59.66-14.26,4.53-28.64,6.47-42.97,6.47Z"/>
      <path class="cls-2" d="M126.14,248.64c-44.18,0-87.09-16.96-125.04-33.7l.54-1.22c47.65,21.02,103.16,42.39,158.98,29.85,39.12-8.79,70.24-33.45,92.97-53.94,4.85-4.37,9.61-8.74,14.33-13.07,41.84-38.4,81.36-74.68,144.24-74.7h.08c65.66,0,122.92,33.41,178.31,65.72,9.71,5.67,19.76,11.52,29.59,17.04,56.08,31.47,102.1,49.15,144.86,55.64,52.42,7.96,101.43-.72,149.83-26.53l.63,1.18c-48.66,25.95-97.94,34.67-150.65,26.67-42.92-6.52-89.09-24.25-145.31-55.79-9.84-5.52-19.89-11.39-29.61-17.05-55.23-32.22-112.35-65.54-177.64-65.54h-.08c-62.36.03-101.7,36.13-143.34,74.35-4.72,4.33-9.49,8.71-14.34,13.08-22.85,20.6-54.14,45.39-93.57,54.25-11.63,2.61-23.25,3.77-34.77,3.77Z"/>
      <path class="cls-2" d="M123.69,216.43c-36.79,0-77.01-9.25-122.67-28.2l.51-1.23c48.22,20.01,90.32,29.16,128.69,28,42.83-1.3,82.74-15.27,122.03-42.7,5.15-3.6,10.21-7.18,15.21-10.72,48.58-34.4,90.54-64.11,153.89-64.13h.06c65.96,0,124.55,28.84,181.22,56.72,9.28,4.56,18.87,9.28,28.34,13.8,54.32,25.92,99.01,40.15,140.65,44.78,50.34,5.61,97.21-2.82,143.28-25.76l.59,1.19c-46.31,23.06-93.42,31.53-144.03,25.9-41.79-4.65-86.61-18.92-141.07-44.91-9.48-4.52-19.07-9.24-28.35-13.81-56.53-27.82-114.99-56.59-180.63-56.59h-.06c-62.93.02-104.72,29.61-153.12,63.88-5,3.54-10.06,7.13-15.21,10.72-39.5,27.58-79.65,41.63-122.75,42.94-2.18.07-4.37.1-6.57.1Z"/>
      <path class="cls-2" d="M124.26,187.18c-38.03,0-78.45-8.42-123.33-25.67l.48-1.24c47.11,18.11,89.26,26.45,128.89,25.51,42.29-1.01,83.21-12.51,125.08-35.18l4.3-2.33c55.76-30.2,103.91-56.29,170.43-56.3h.09c67.42,0,125.54,23.44,187.08,48.25,7.99,3.22,16.02,6.46,24.1,9.66,78.52,31.06,172.43,56.59,273.61,10.39l.55,1.21c-101.63,46.4-195.87,20.8-274.65-10.37-8.09-3.2-16.12-6.44-24.11-9.66-61.41-24.76-119.42-48.15-186.58-48.15h-.09c-66.18.02-114.2,26.03-169.79,56.14l-4.3,2.33c-42.06,22.77-83.17,34.33-125.68,35.34-2.02.05-4.04.07-6.07.07Z"/>
      <path class="cls-2" d="M798.53,157.56c-6.26,0-12.58-.17-18.98-.52-39.85-2.17-83.01-11.06-135.84-28l-10.72-3.44c-64.89-20.87-126.19-40.58-195.1-40.58h-.21c-64.72.04-114.9,18.5-178.73,44.57-86.89,35.49-166.49,37.1-258.1,5.2l.44-1.26c91.28,31.78,170.59,30.18,257.16-5.18,61.9-25.29,114.4-44.63,179.23-44.67h.21c69.13,0,130.52,19.74,195.51,40.64l10.71,3.44c52.72,16.9,95.78,25.78,135.51,27.94,48.13,2.62,92.43-4.63,135.43-22.18l.5,1.23c-37.48,15.29-75.94,22.79-117.03,22.79Z"/>
      <path class="cls-2" d="M126.64,127.63c-41.9,0-83.08-6.53-125.87-19.57l.39-1.27c86.86,26.48,167.11,26.02,260.21-1.47,63.94-18.89,119.57-31.48,183.24-31.54h.41c61.53,0,122.21,13.23,180.91,26.03,93.68,20.43,190.56,41.55,289.21,6.98l.44,1.26c-99.01,34.7-196.07,13.53-289.93-6.93-58.76-12.81-119.5-26.04-181.04-26-63.5.06-119.03,12.63-182.86,31.48-47.51,14.03-91.69,21.04-135.1,21.04Z"/>
      <path class="cls-2" d="M130.17,97.46c-44.21,0-86.78-5.37-129.47-16.14l.33-1.29c79.89,20.15,159.33,21.35,250.03,3.78,61.69-11.95,127.86-23.62,198.93-23.67h.44c58.42,0,117.22,9.01,174.11,17.73,95.11,14.58,193.45,29.65,290.71,2.15l.36,1.28c-97.53,27.58-196.02,12.49-291.27-2.11-56.83-8.71-115.59-17.72-173.91-17.72h-.43c-70.95.05-137.05,11.71-198.68,23.65-42.43,8.22-82.42,12.34-121.14,12.34Z"/>
      <path class="cls-2" d="M787.62,66.29c-55.76,0-111.51-5.26-166.22-10.42-54.8-5.17-111.48-10.57-167.05-10.46-55.2.05-110.87,5.09-164.72,9.96-94.44,8.55-192.09,17.39-289.01-.79l.25-1.31c96.74,18.15,194.3,9.32,288.65.78,53.87-4.88,109.58-9.92,164.83-9.97h.73c55.41,0,111.85,5.32,166.45,10.47,96.6,9.11,196.49,18.53,293.79-1.28l.27,1.3c-42.34,8.62-85.16,11.72-127.96,11.72Z"/>
      <path class="cls-2" d="M776.92,34.73c-53.62,0-107.14-2.39-159.7-4.73-52.35-2.33-106.47-4.75-159.55-4.75h-.65c-52.94.02-106.83,2.35-158.94,4.6C200.46,34.08,99.51,38.45.56,27.82l.14-1.32c98.86,10.62,199.75,6.25,297.32,2.03,52.13-2.25,106.04-4.59,159-4.61h.65c53.11,0,107.25,2.41,159.61,4.75,97.94,4.36,199.2,8.88,298.14-2.18l.15,1.32c-45.91,5.13-92.31,6.91-138.64,6.91Z"/>
      <path class="cls-2" d="M713.64,1198.75l-1.02-.85c35.83-43.16,48.92-97.27,40.03-165.44-7.63-58.47-30.63-118.7-51.58-170.57-12.66-31.33-26.52-62.76-39.93-93.16-9.85-22.33-20.04-45.42-29.67-68.3-2.03-4.83-4.13-9.73-6.27-14.71-15.91-37.11-33.94-79.18-35.31-119.51-2.92-85.91,26.7-178.02,52.83-259.28l.71-2.22c30.02-93.37,59.04-194.83,67.98-304.1l1.33.11c-8.95,109.4-37.99,210.95-68.04,304.4l-.71,2.22c-26.1,81.16-55.68,173.15-52.77,258.83,1.36,40.08,19.34,82.02,35.2,119.03,2.13,4.98,4.24,9.89,6.27,14.71,9.63,22.87,19.81,45.95,29.66,68.28,13.41,30.41,27.28,61.85,39.95,93.19,20.99,51.94,44.02,112.27,51.67,170.9,8.94,68.55-4.24,123-40.32,166.46Z"/>
      <path class="cls-2" d="M693.4,1198.73l-.99-.89c40.31-45.19,55.11-102.8,45.24-176.14-8.36-62.11-32.68-124.27-56.87-182.62-13.29-32.05-27.77-64.2-41.78-95.3-10.73-23.83-21.83-48.47-32.32-72.89-2.46-5.73-5.01-11.5-7.7-17.62-16.48-37.37-35.16-79.73-36.56-119.63-2.82-80.26,26.13-165.17,56.02-245.27C673.38,141.14,685.82,63.04,691.08.58l1.33.11c-8.91,105.85-40.22,201.05-72.72,288.15-29.84,79.97-58.74,164.75-55.94,244.76,1.39,39.64,20.01,81.88,36.44,119.14,2.7,6.12,5.24,11.89,7.71,17.63,10.48,24.41,21.58,49.05,32.31,72.87,14.01,31.11,28.51,63.28,41.8,95.34,24.23,58.43,48.58,120.69,56.96,182.96,9.92,73.74-4.98,131.71-45.57,177.2Z"/>
      <path class="cls-2" d="M673.16,1198.7l-.97-.92c44.88-47.35,61.46-108.7,50.67-187.55-9.09-66.42-35.67-133-62.13-195.5-13.65-32.25-28.45-64.63-42.77-95.94-11.84-25.9-24.09-52.69-35.62-79.27-2.2-5.07-4.48-10.23-6.79-15.47-17.48-39.58-37.3-84.43-38.55-127.53-2.32-80.2,30.24-165.5,58.86-230.86,33.68-76.91,66.06-162.25,74.88-265.14l1.33.11c-8.84,103.08-41.27,188.55-74.99,265.56-54.38,124.18-59.96,188.3-58.75,230.29,1.24,42.84,21,87.56,38.44,127.03,2.31,5.24,4.59,10.4,6.8,15.48,11.53,26.57,23.77,53.35,35.61,79.24,14.32,31.32,29.13,63.71,42.78,95.97,26.49,62.58,53.11,129.26,62.22,195.84,10.85,79.27-5.85,140.98-51.02,188.64Z"/>
      <path class="cls-2" d="M652.92,1198.67l-.94-.94c48.6-48.65,67.21-112.17,56.91-194.2-8.81-70.17-37.57-142.25-63.83-204.3-15.05-35.57-31.5-71.23-47.41-105.72-13-28.19-26.44-57.34-39.06-86.28-2.33-5.34-4.74-10.78-7.19-16.3-17.98-40.51-38.35-86.43-40.27-130.58-2.58-59.44,17.22-129.22,60.53-213.33,35.85-69.63,70.21-147.69,78.74-246.54l1.33.11c-8.56,99.08-42.97,177.28-78.88,247.03-43.2,83.9-62.95,153.46-60.38,212.66,1.9,43.9,22.23,89.69,40.16,130.09,2.45,5.52,4.87,10.96,7.19,16.31,12.61,28.93,26.05,58.07,39.04,86.26,15.91,34.5,32.36,70.16,47.42,105.75,26.29,62.14,55.09,134.32,63.92,204.66,10.36,82.46-8.38,146.34-57.29,195.31Z"/>
      <path class="cls-2" d="M632.69,1198.64l-.92-.96c52.77-50.47,73.39-116.98,63.03-203.34-8.91-74.29-39.26-150.17-67.01-215.47-15.96-37.55-33.41-75.18-50.3-111.56-13.74-29.61-27.94-60.23-41.26-90.64-2.41-5.5-4.9-11.09-7.43-16.77-18.95-42.5-40.44-90.67-42.19-137.03-1.56-41.11,7.98-108.64,62.27-196.93,37.32-60.69,72.99-130.01,81.21-225.51l1.33.11c-8.24,95.77-43.99,165.26-81.4,226.09-54.11,88-63.62,155.25-62.08,196.18,1.75,46.09,23.17,94.14,42.08,136.53,2.53,5.68,5.03,11.27,7.44,16.77,13.31,30.4,27.52,61.01,41.25,90.61,16.89,36.4,34.35,74.04,50.31,111.61,27.78,65.38,58.17,141.37,67.1,215.83,10.41,86.81-10.34,153.69-63.43,204.46Z"/>
      <path class="cls-2" d="M612.46,1198.61l-.9-.98c56.37-51.59,79.12-120.09,69.56-209.42-7.97-74.46-37.36-151.64-67.94-223.96-17.52-41.44-36.84-82.9-55.52-122.99-14.76-31.67-30.02-64.42-44.31-96.97-2.28-5.19-4.63-10.47-7.02-15.82-19.74-44.3-42.12-94.5-43.07-142.8-1.18-60.37,21.68-125,64.36-182,52.7-70.36,75.73-127.36,82.14-203.27l1.33.11c-6.43,76.19-29.53,133.38-82.4,203.96-42.51,56.76-65.27,121.1-64.1,181.17.94,48.03,23.26,98.1,42.96,142.28,2.39,5.36,4.74,10.64,7.02,15.83,14.28,32.53,29.54,65.27,44.29,96.94,18.69,40.1,38.02,81.57,55.54,123.03,13.42,31.75,28.86,69.46,41.6,108.46,14.04,42.98,22.69,80.89,26.44,115.88,4.45,41.58,1.74,79.42-8.06,112.46-11.18,37.72-32.02,70.72-61.93,98.08Z"/>
      <path class="cls-2" d="M592.22,1198.58l-.88-1c32.32-28.33,54.85-62.75,66.96-102.28,10.61-34.63,13.58-74.45,8.83-118.36-5.01-46.3-17.31-107.09-72.87-237.28-17.89-41.91-37.51-83.87-56.5-124.45-14.21-30.38-28.9-61.79-42.76-92.96-2.65-5.96-5.4-12.03-8.18-18.19-21.53-47.57-45.93-101.48-47.34-153.38-1.59-58.28,22.09-118.58,64.95-165.44,3.66-4,7.43-8.01,11.07-11.89,14.26-15.18,29-30.88,40.18-49.11,24.04-39.21,30.55-84.63,33.74-123.88l1.33.11c-3.21,39.41-9.74,85.02-33.93,124.47-11.25,18.35-26.04,34.1-40.35,49.33-3.64,3.88-7.41,7.88-11.06,11.88-42.63,46.61-66.18,106.57-64.6,164.5,1.41,51.63,25.75,105.42,47.22,152.87,2.79,6.16,5.54,12.23,8.19,18.2,13.85,31.16,28.54,62.56,42.75,92.93,18.99,40.59,38.62,82.56,56.51,124.49,14.42,33.8,31,73.87,44.56,114.83,15.11,45.64,24.4,85.82,28.41,122.83,4.77,44.08,1.78,84.08-8.88,118.89-12.19,39.78-34.85,74.4-67.36,102.9Z"/>
      <path class="cls-2" d="M572,1198.56l-.86-1.02c34.55-28.96,58.77-64.41,71.99-105.35,11.58-35.88,15.08-77.25,10.42-122.97-8.39-82.29-41.26-167.59-75.52-247.5-18.61-43.41-39.05-86.86-58.81-128.88-15.71-33.41-31.96-67.96-47.2-102.28-2.47-5.57-5.02-11.23-7.61-16.97-21.74-48.25-46.38-102.93-47.6-155.84-1.38-59.94,22.87-114.31,68.27-153.1,2.89-2.47,5.81-4.91,8.72-7.36,14.29-11.97,29.07-24.35,40.42-39.81,25.43-34.6,31.79-76.75,34.88-117.16l1.33.1c-3.11,40.6-9.52,82.98-35.14,117.85-11.45,15.58-26.29,28.02-40.64,40.04-2.91,2.44-5.82,4.88-8.71,7.35-45.09,38.52-69.17,92.52-67.8,152.05,1.21,52.64,25.79,107.19,47.48,155.33,2.59,5.74,5.14,11.4,7.61,16.98,15.23,34.31,31.48,68.85,47.19,102.25,19.77,42.03,40.21,85.49,58.83,128.92,34.31,80.01,67.21,165.42,75.62,247.89,4.68,45.9,1.16,87.46-10.48,123.51-13.29,41.19-37.65,76.84-72.4,105.97Z"/>
      <path class="cls-2" d="M551.77,1198.54l-.83-1.04c36.43-29.16,62.21-65.04,76.62-106.61,12.65-36.49,16.96-78.65,12.81-125.32-7.59-85.27-40.93-172.55-75.83-254.17-20.25-47.36-42.65-94.69-64.32-140.46-15.11-31.91-30.72-64.91-45.49-97.65-2.76-6.11-5.61-12.34-8.51-18.66-23.64-51.57-50.43-110.03-51.22-166.38-.85-60.82,22.49-108.94,67.51-139.16,3.72-2.5,7.53-4.96,11.22-7.33,14.38-9.27,29.24-18.85,40.81-32.33,15.03-17.52,29.58-42.87,34.24-109.11l1.33.09c-1.23,17.55-3.21,38.16-8.48,57.93-5.62,21.06-14.15,38.06-26.07,51.96-11.69,13.63-26.64,23.27-41.1,32.59-3.68,2.37-7.49,4.83-11.2,7.32-44.62,29.96-67.76,77.69-66.92,138.04.79,56.07,27.52,114.39,51.1,165.85,2.9,6.32,5.75,12.55,8.51,18.66,14.76,32.73,30.37,65.72,45.48,97.63,21.67,45.78,44.08,93.12,64.34,140.51,34.94,81.72,68.32,169.12,75.93,254.58,4.17,46.85-.16,89.2-12.87,125.87-14.5,41.82-40.42,77.89-77.05,107.22Z"/>
      <path class="cls-2" d="M531.54,1198.53l-.81-1.06c39.09-29.79,66.76-66.79,82.24-109.97,13.57-37.85,18.2-81.76,13.78-130.51-8.04-88.6-43.43-179.87-80.49-265.31-20.23-46.65-42.52-93.29-64.08-138.39-17.7-37.03-36-75.32-53.07-113.42-2.18-4.87-4.41-9.8-6.67-14.78-22.71-50.17-48.45-107.03-49.5-162.5-.54-28.42,4.44-53.52,14.79-74.59,11.37-23.13,29.01-40.84,52.44-52.64,4.13-2.08,8.4-4.08,12.52-6.02,14.03-6.59,28.53-13.4,40.13-24.37,14.07-13.3,33.07-38.63,35.64-104.68l1.33.05c-2.6,66.53-21.82,92.13-36.06,105.59-11.75,11.12-26.36,17.97-40.48,24.61-4.11,1.93-8.37,3.93-12.49,6-31.12,15.67-67.93,50.26-66.5,126.01,1.04,55.19,26.72,111.92,49.38,161.97,2.26,4.98,4.49,9.92,6.67,14.78,17.06,38.08,35.36,76.36,53.05,113.39,21.56,45.11,43.86,91.76,64.1,138.43,37.1,85.54,72.55,176.93,80.6,265.72,4.44,48.95-.22,93.05-13.85,131.08-15.57,43.43-43.38,80.63-82.68,110.58Z"/>
      <path class="cls-2" d="M511.31,1198.54l-.78-1.08c39.97-28.85,68.91-64.13,86.02-104.85,16.45-39.15,22.51-84.66,18.01-135.26-8.97-100.94-49.33-198.96-86.46-282.91-20.45-46.24-42.84-92.51-64.5-137.25-16.97-35.06-34.52-71.32-51.02-107.34-2.53-5.52-5.13-11.12-7.75-16.78-24.4-52.58-52.05-112.18-52.92-170.62-.93-62.32,22.13-102.42,68.54-119.18,3.85-1.39,7.81-2.7,11.64-3.98,14.38-4.78,29.26-9.72,41.33-19.6,28.93-23.69,33.76-65.56,34.73-99.4l1.33.04c-.98,34.12-5.87,76.36-35.21,100.39-12.26,10.04-27.25,15.02-41.75,19.83-3.82,1.27-7.78,2.58-11.61,3.97-45.82,16.54-68.58,56.21-67.66,117.9.87,58.15,28.46,117.62,52.8,170.08,2.63,5.66,5.22,11.26,7.75,16.78,16.5,36.01,34.04,72.26,51.01,107.31,21.66,44.75,44.06,91.03,64.52,137.29,37.17,84.05,77.59,182.19,86.57,283.33,4.51,50.82-1.58,96.54-18.11,135.89-17.2,40.95-46.3,76.42-86.47,105.41Z"/>
      <path class="cls-2" d="M491.08,1198.56l-.75-1.1c84.36-57.23,121.67-140.85,110.89-248.54-9.36-93.49-45.47-185.21-83.1-270.39-22.71-51.4-47.92-102.65-72.31-152.22-18.34-37.28-37.3-75.82-55.07-114.16-2.16-4.67-4.37-9.39-6.6-14.16-24.49-52.38-52.24-111.75-53.21-170.05-1.06-63.67,21.45-100.61,68.81-112.92,4.08-1.06,8.29-2.01,12.37-2.94,14.79-3.35,30.08-6.81,42.58-16.15,28.26-21.11,32.55-62.19,33.14-95.61l1.33.02c-.59,33.73-4.95,75.19-33.67,96.66-12.73,9.51-28.16,13-43.09,16.38-4.06.92-8.27,1.87-12.33,2.93-46.68,12.13-68.86,48.64-67.81,111.61.96,58.01,28.65,117.25,53.08,169.51,2.23,4.77,4.44,9.49,6.6,14.16,17.76,38.33,36.72,76.87,55.06,114.14,24.39,49.58,49.62,100.84,72.33,152.27,16.95,38.38,36.42,84.11,52.28,132.25,16.49,50.08,26.61,95.4,30.93,138.55,10.84,108.22-26.67,192.25-111.47,249.78Z"/>
      <path class="cls-2" d="M470.84,1198.59l-.71-1.13c88.29-55.88,128.17-138.67,118.54-246.07-9.1-101.41-50.41-199.35-88.41-283.19-23.12-51-48.67-101.86-73.38-151.05-17.26-34.35-35.1-69.86-51.97-105.14-2.49-5.2-5.03-10.46-7.6-15.78-26.13-54.08-55.74-115.37-57.16-176.24-1.51-64.35,20.68-100.11,67.81-109.34,4.62-.9,9.4-1.63,14.02-2.33,15.05-2.28,30.62-4.63,43.48-13.61,28.03-19.56,31.85-60.72,32.05-94.38h1.33c-.09,14.84-.78,34.15-5.38,52.01-5.1,19.78-14.26,34.41-27.24,43.46-13.12,9.16-28.84,11.53-44.05,13.83-4.61.7-9.38,1.42-13.96,2.32-46.39,9.09-68.22,44.42-66.74,108.01,1.42,60.58,30.96,121.73,57.03,175.69,2.57,5.32,5.11,10.58,7.6,15.78,16.86,35.26,34.7,70.77,51.96,105.11,24.72,49.2,50.28,100.07,73.41,151.1,38.05,83.94,79.41,182,88.53,283.62,9.68,107.94-30.4,191.15-119.15,247.32Z"/>
      <path class="cls-2" d="M450.51,1198.59l-.71-1.13c88.34-55.88,128.28-138.67,118.71-246.07-9.04-101.4-50.3-199.34-88.27-283.19-23.08-50.97-48.59-101.8-73.26-150.96-17.25-34.37-35.09-69.92-51.95-105.22-2.45-5.14-4.96-10.33-7.49-15.58-26.11-54.12-55.71-115.47-57.14-176.43-1.51-64.36,20.59-100.13,67.55-109.35,4.6-.9,9.37-1.63,13.98-2.33,15.02-2.28,30.54-4.63,43.37-13.61,27.95-19.56,31.72-60.72,31.88-94.39h1.33c-.07,14.83-.74,34.14-5.3,51.99-5.06,19.79-14.19,34.42-27.14,43.49-13.08,9.16-28.76,11.53-43.93,13.83-4.6.7-9.35,1.42-13.93,2.32-46.22,9.08-67.96,44.41-66.47,108.01,1.42,60.67,30.95,121.88,57,175.89,2.53,5.25,5.04,10.44,7.49,15.58,16.86,35.29,34.69,70.83,51.94,105.2,24.68,49.17,50.2,100.02,73.29,151.01,38.01,83.94,79.32,182.01,88.38,283.62,9.62,107.93-30.52,191.14-119.32,247.31Z"/>
      <path class="cls-2" d="M430.08,1198.56l-.74-1.11c84.82-57.21,122.63-140.83,112.36-248.51-8.91-93.45-44.62-185.17-81.89-270.37-22.37-51.15-47.24-102.17-71.29-151.51-18.28-37.5-37.18-76.28-54.86-114.85-1.88-4.1-3.78-8.23-5.71-12.4-24.37-52.82-51.99-112.7-53.02-171.79-.52-29.64,3.61-52.76,12.6-70.69,10.72-21.37,28.87-35.59,53.95-42.27,3.98-1.06,8.09-2.02,12.07-2.94,14.48-3.36,29.45-6.84,41.61-16.17,27.51-21.1,31.37-62.19,31.67-95.64h1.33c-.3,33.76-4.22,75.24-32.19,96.7-12.39,9.5-27.5,13.01-42.12,16.41-3.97.92-8.07,1.87-12.03,2.93-45.84,12.2-66.67,47.68-65.55,111.65,1.02,58.81,28.58,118.55,52.89,171.25,1.92,4.17,3.83,8.3,5.71,12.4,17.67,38.56,36.57,77.33,54.84,114.82,24.05,49.35,48.93,100.38,71.31,151.56,16.79,38.38,36.06,84.11,51.71,132.28,16.27,50.08,26.17,95.38,30.28,138.5,10.32,108.21-27.68,192.24-112.94,249.75Z"/>
      <path class="cls-2" d="M409.66,1198.54l-.77-1.09c40.03-28.41,69.37-63.07,87.19-103.03,17.31-38.8,24.34-83.89,20.89-134-6.89-100.09-45.25-196.92-80.66-279.82-20.2-47.28-42.49-94.56-64.05-140.28-17.35-36.8-35.3-74.85-52.05-112.69-1.59-3.6-3.2-7.22-4.82-10.87-23.79-53.5-50.76-114.13-51.99-174.34-1.3-63.92,18.97-101.86,63.79-119.41,3.65-1.43,7.4-2.78,11.02-4.08,13.31-4.79,27.07-9.73,38.08-19.61,13.88-12.45,29.87-34.96,30.23-99h1.33c-.08,15.09-.75,34.8-5.23,53.48-4.86,20.3-13.18,35.51-25.44,46.51-11.2,10.05-25.09,15.04-38.51,19.87-3.61,1.3-7.35,2.64-10.98,4.07-44.23,17.32-64.23,54.86-62.94,118.15,1.22,59.94,28.13,120.44,51.87,173.83,1.62,3.64,3.23,7.27,4.83,10.87,16.74,37.83,34.68,75.87,52.03,112.67,21.57,45.73,43.87,93.02,64.07,140.33,35.45,83,73.86,179.96,80.77,280.26,3.47,50.33-3.6,95.63-21,134.64-17.92,40.18-47.41,75.02-87.64,103.58Z"/>
      <path class="cls-2" d="M389.25,1198.54l-.79-1.07c38.77-28.61,67.11-63.35,84.24-103.26,16.51-38.46,23.16-83.05,19.77-132.52-6.74-98.29-43.54-193.84-77.5-275.68-18.13-43.69-38.03-87.47-57.26-129.81-16.13-35.5-32.81-72.21-48.37-108.69l-3.19-7.47c-24.29-56.83-49.41-115.59-50.49-176.74-.77-44.11,5-98.56,56.95-128.25,3.47-1.98,7.04-3.9,10.49-5.76,13.09-7.05,25.46-13.7,35.43-24.7,24.63-27.16,27.81-67.95,27.68-104.26h1.33c.14,36.56-3.08,77.66-28.02,105.16-10.12,11.16-23.17,18.18-35.79,24.98-3.44,1.85-7,3.77-10.46,5.74-51.35,29.34-57.05,83.32-56.28,127.07,1.07,60.89,26.14,119.53,50.38,176.24l3.19,7.47c15.56,36.47,32.23,73.17,48.36,108.66,19.24,42.35,39.14,86.14,57.28,129.85,34.01,81.94,70.85,177.6,77.6,276.1,3.4,49.68-3.28,94.47-19.88,133.13-17.22,40.12-45.71,75.05-84.67,103.8Z"/>
      <path class="cls-2" d="M368.83,1198.55l-.8-1.06c38-28.88,65.54-64.55,81.85-106,14.37-36.53,20.49-78.85,18.21-125.79-4.27-87.61-36.78-180.47-68.03-259.74-17.07-43.31-35.97-86.71-54.25-128.67-16.41-37.68-33.39-76.65-48.98-115.45-20.97-52.17-44.74-111.29-46.07-173.03-1.02-47.32,4.01-100.78,49.03-138.55,3.55-2.98,7.23-5.89,10.78-8.7,11.63-9.2,22.61-17.89,31.15-29.97,22.22-31.44,24.12-72.2,24.16-111.24h1.33c-.04,39.26-1.95,80.25-24.4,112.01-8.65,12.24-20.22,21.39-31.41,30.25-3.55,2.8-7.21,5.71-10.75,8.68-44.59,37.41-49.56,90.5-48.55,137.5,1.32,61.5,25.05,120.5,45.97,172.57,15.59,38.77,32.56,77.73,48.97,115.41,18.28,41.98,37.19,85.38,54.26,128.71,31.28,79.38,63.84,172.37,68.12,260.17,2.3,47.13-3.86,89.63-18.3,126.34-16.4,41.69-44.08,77.55-82.28,106.58Z"/>
      <path class="cls-2" d="M348.42,1198.58l-.82-1.05c35.85-27.81,62.15-61.89,78.17-101.29,14.18-34.85,20.79-75.09,19.65-119.62-2.16-84.7-31.17-173.28-59.26-248.76-16.03-43.08-33.93-86.25-51.24-128-13.75-33.18-27.98-67.48-41.18-101.55-24.24-62.52-44.4-119.19-45.56-179.53-.65-33.64,1.38-58.55,6.57-80.79,6.46-27.65,18.06-51.11,35.45-71.73,2.51-2.98,5.05-5.91,7.58-8.83,11.2-12.93,21.78-25.14,29.46-40.32,18.24-36.05,19.04-77.43,18.3-116.71l1.33-.02c.74,39.45-.07,81.01-18.45,117.34-7.75,15.33-18.88,28.17-29.64,40.59-2.53,2.92-5.06,5.85-7.57,8.82-38.35,45.45-42.71,99.74-41.71,151.63,1.16,60.13,21.28,116.67,45.47,179.08,13.2,34.05,27.42,68.35,41.17,101.52,17.31,41.76,35.21,84.94,51.26,128.04,28.13,75.59,57.17,164.3,59.34,249.19,1.14,44.71-5.5,85.14-19.75,120.15-16.11,39.62-42.56,73.88-78.59,101.84Z"/>
      <path class="cls-2" d="M328.02,1198.61l-.82-1.05c34.18-26.86,59.51-59.62,75.28-97.36,13.99-33.46,20.93-72.05,20.65-114.68-.54-81.85-26.69-167.16-52.19-239.82-12.54-35.72-27.34-71.07-43.02-108.5-38.65-92.29-78.62-187.72-80.46-285.34-1.24-65.93,3.89-116.87,33.24-167.05,35.02-59.86,47.51-111.55,44.55-184.36l1.33-.05c2.97,73.1-9.57,124.99-44.73,185.09-29.2,49.91-34.3,100.66-33.06,166.36,1.83,97.37,41.75,192.68,80.36,284.85,14.99,35.8,30.5,72.82,43.05,108.58,25.54,72.76,51.72,158.21,52.26,240.25.28,42.81-6.7,81.57-20.75,115.2-15.86,37.95-41.32,70.88-75.68,97.89Z"/>
      <path class="cls-2" d="M307.61,1198.64l-.83-1.04c62.69-49.72,93.54-116.81,94.31-205.1.69-79.3-23.09-162.19-46.44-232.82-10.74-32.47-23.51-65.7-35.86-97.83-33.96-88.35-69.08-179.71-70.44-274.18-1.02-70.57.11-125.11,24.11-184.46,27.44-67.86,37.16-128.48,32.5-202.71l1.33-.08c4.67,74.44-5.07,135.24-32.59,203.3-23.9,59.12-25.03,113.53-24.01,183.94,1.36,94.23,36.44,185.48,70.35,273.72,12.36,32.15,25.13,65.39,35.88,97.89,23.39,70.73,47.21,153.75,46.51,233.25-.78,88.72-31.79,156.15-94.81,206.13Z"/>
      <path class="cls-2" d="M287.21,1198.68l-.83-1.04c60.26-48.07,90.67-112.64,92.98-197.38,2.08-76.48-19.19-156.85-40.28-225.38-8.9-28.92-19.07-58.21-28.91-86.54-29.47-84.81-59.93-172.51-61.15-264.05-.07-5.17-.15-10.3-.22-15.4-.94-62.3-1.83-121.15,14.6-183.51,21.07-79.99,27.63-149.32,21.26-224.81l1.33-.11c6.38,75.64-.19,145.12-21.3,225.26-16.38,62.19-15.5,120.95-14.56,183.15.08,5.1.15,10.23.22,15.4,1.22,91.33,31.65,178.93,61.08,263.64,9.85,28.34,20.03,57.64,28.93,86.58,21.12,68.64,42.42,149.14,40.34,225.81-2.32,85.16-32.89,150.06-93.48,198.39Z"/>
      <path class="cls-2" d="M266.8,1198.73l-.83-1.04c57.21-45.82,87.16-106.95,91.55-186.91,2.13-38.71.38-98.14-32.24-215.12-7.21-25.86-15.21-51.84-22.94-76.96-25.34-82.32-51.54-167.44-52.19-256.84-.13-18.21-.64-36.34-1.12-53.86-1.52-54.7-2.95-106.37,5.94-161.63,14.51-90.16,17.49-168.25,9.39-245.75l1.33-.14c8.11,77.62,5.13,155.82-9.4,246.1-8.87,55.13-7.44,106.74-5.92,161.38.49,17.53.99,35.66,1.12,53.89.66,89.21,26.83,174.23,52.14,256.46,7.74,25.13,15.73,51.12,22.95,76.99,32.67,117.17,34.42,176.75,32.29,215.56-4.41,80.36-34.52,141.81-92.04,187.88Z"/>
      <path class="cls-2" d="M246.4,1198.77l-.84-1.04c53.62-43.23,82.96-100.27,89.7-174.4,6.35-69.91-8.96-144.97-23-202.55-6.95-28.5-14.87-57.26-22.53-85.07-8.32-30.2-16.92-61.43-24.3-92.43-10.59-44.45-14.72-87.25-13.8-143.13.37-22.54-2.29-45.84-4.87-68.38-2.32-20.27-4.71-41.24-4.92-61.72-.3-29.46,1.04-61.42,4.21-100.56,8.53-105.09,7.91-188-2-268.81l1.32-.16c9.92,80.91,10.54,163.9,2,269.09-3.17,39.1-4.51,71.02-4.21,100.44.21,20.41,2.6,41.34,4.91,61.58,2.58,22.58,5.25,45.93,4.87,68.55-.92,55.76,3.2,98.47,13.77,142.8,7.38,30.98,15.98,62.2,24.29,92.39,7.66,27.82,15.58,56.59,22.54,85.11,14.07,57.68,29.4,132.89,23.03,202.99-6.77,74.5-36.27,131.85-90.19,175.32Z"/>
      <path class="cls-2" d="M225.99,1198.81l-.84-1.03c50.55-41.18,79.23-95.06,87.67-164.72,8.08-66.67-4.03-137.92-15.49-192.54-5.45-25.97-11.74-52.21-17.82-77.59-7.06-29.47-14.37-59.95-20.4-90.18-4.35-21.83-9.06-47.74-10.91-74.34-.86-12.41.27-24.52,1.36-36.24.78-8.37,1.59-17.03,1.65-25.68.18-24.88-3.43-50.83-6.92-75.93-2.78-19.95-5.65-40.57-6.6-60.55-1.51-31.77-1.78-66.75-.86-110.08,1.67-78.44,1.69-182.2-13.09-289.2l1.32-.18c14.8,107.08,14.78,210.91,13.11,289.41-.92,43.3-.65,78.24.86,109.99.95,19.91,3.81,40.51,6.59,60.43,3.5,25.14,7.12,51.14,6.93,76.12-.06,8.71-.87,17.39-1.66,25.79-1.09,11.66-2.21,23.72-1.36,36.02,1.84,26.53,6.54,52.38,10.88,74.17,6.03,30.21,13.33,60.67,20.39,90.13,6.08,25.39,12.38,51.64,17.83,77.63,11.48,54.73,23.62,126.12,15.51,192.98-8.49,70.02-37.33,124.19-88.15,165.59Z"/>
      <path class="cls-2" d="M205.58,1198.84l-.85-1.03c103.9-86.37,97.46-217.62,77.46-334.62-4.26-24.92-9.34-50.13-14.25-74.51-6.14-30.47-12.48-61.98-17.3-93.23-5.35-34.72-4.41-66.46-3.41-100.07.25-8.48.51-17.25.66-26.08.48-27.7-4.03-56.84-8.39-85.01-2.94-18.98-5.98-38.61-7.42-57.47-3.33-43.44-4.67-87.13-5.47-120.35-2.15-89.48-6.59-195.78-23.18-305.7l1.32-.2c16.6,110,21.04,216.34,23.19,305.87.8,33.2,2.14,76.87,5.47,120.28,1.44,18.81,4.47,38.41,7.41,57.36,4.37,28.23,8.89,57.42,8.41,85.24-.15,8.84-.41,17.62-.66,26.1-.99,33.54-1.93,65.22,3.4,99.82,4.81,31.22,11.15,62.72,17.29,93.17,4.91,24.39,9.99,49.61,14.25,74.55,20.07,117.37,26.5,249.07-77.92,335.87Z"/>
      <path class="cls-2" d="M185.17,1198.86l-.87-1.01c97.14-83.39,95.25-207.48,80.59-317.88-3.04-22.88-6.77-46.06-10.38-68.48-4.75-29.5-9.66-60-13.05-90.2-3.26-29.02-1.65-55.6.06-83.74.73-12.05,1.49-24.52,1.82-37.13.77-29.52-4.77-61.06-10.12-91.56-3.27-18.61-6.65-37.85-8.46-56.11-4.53-45.57-7.43-90.71-9.67-128.86-5.68-96.72-13.91-210.73-31.95-323.08l1.31-.21c18.04,112.41,26.28,226.47,31.96,323.22,2.24,38.13,5.14,83.26,9.67,128.8,1.81,18.21,5.19,37.43,8.45,56.01,5.37,30.57,10.92,62.17,10.14,91.83-.33,12.63-1.09,25.11-1.82,37.17-1.7,28.08-3.31,54.6-.06,83.51,3.39,30.17,8.3,60.66,13.04,90.14,3.61,22.43,7.34,45.61,10.38,68.51,14.71,110.75,16.59,235.26-81.04,319.06Z"/>
      <path class="cls-2" d="M164.75,1198.87l-.89-.99c40.76-36.83,66.35-83.12,78.22-141.5,9.17-45.1,10.28-96.1,3.6-165.35-1.92-19.91-4.33-40.11-6.66-59.64-3.34-28.03-6.8-57.01-8.88-85.66-1.75-24.05-2.19-42.49-1.45-59.79.4-9.32,2.38-18.83,4.3-28.03,1.97-9.43,4-19.19,4.23-28.46.39-15.87-3.38-33.45-7.02-50.45-2.04-9.5-3.96-18.47-5.2-27.15-3.39-23.71-6.51-47.6-9.26-71.02-5.86-49.86-10.31-100.11-13.52-138.32-10.75-127.66-21.57-234.61-39.41-341.66l1.31-.22c17.85,107.09,28.67,214.08,39.43,341.77,3.22,38.2,7.66,88.44,13.52,138.28,2.75,23.41,5.87,47.29,9.26,70.98,1.24,8.63,3.15,17.58,5.18,27.06,3.66,17.07,7.44,34.73,7.05,50.76-.23,9.4-2.28,19.21-4.26,28.7-1.91,9.15-3.88,18.61-4.28,27.82-.74,17.24-.29,35.64,1.45,59.64,2.08,28.61,5.53,57.58,8.87,85.6,2.33,19.54,4.74,39.75,6.66,59.67,6.7,69.39,5.58,120.51-3.62,165.75-11.93,58.67-37.65,105.2-78.63,142.22Z"/>
      <path class="cls-2" d="M144.34,1198.87l-.93-.95c82.43-80.33,87.88-190.74,81.49-298.08-1.05-17.56-2.45-35.4-3.81-52.66-2.09-26.48-4.24-53.86-5.15-80.86-.78-23.19,1.93-45.87,4.55-67.8,1.88-15.73,3.82-31.99,4.44-48.24.65-16.93-3.11-35.17-6.74-52.82-1.79-8.69-3.48-16.9-4.68-24.99-3.6-24.13-7.04-49-10.22-73.92-6.52-51-11.93-102.7-16.37-146.54-10.8-106.69-24.04-230.6-44.43-351.15l1.31-.22c20.4,120.59,33.64,244.53,44.44,351.24,4.44,43.83,9.85,95.51,16.37,146.5,3.18,24.91,6.62,49.77,10.22,73.89,1.2,8.06,2.89,16.25,4.67,24.92,3.65,17.72,7.42,36.05,6.77,53.14-.62,16.3-2.57,32.59-4.45,48.34-2.61,21.88-5.32,44.5-4.54,67.59.91,26.97,3.06,54.34,5.15,80.8,1.36,17.26,2.77,35.11,3.81,52.68,6.41,107.66.93,218.41-81.89,299.12Z"/>
      <path class="cls-2" d="M123.92,1198.84l-.98-.9c73.51-79.78,81.59-184.23,79.37-285.22-.38-17.39-1.08-35.08-1.76-52.18-1.01-25.56-2.06-52-2.07-78.03,0-17.28.32-40.05,2.91-63.02.87-7.74,2.89-15.7,4.84-23.4,2.27-8.96,4.62-18.22,5.11-27.01.91-16.37-3.37-35.4-7.52-53.8-2.18-9.66-4.23-18.78-5.52-27.35-3.71-24.66-7.32-50.32-10.76-76.27-6.76-51.11-12.64-102.63-17.5-146.3C156.32,242.05,142.33,121.4,122.14.86l1.31-.22c20.19,120.57,34.19,241.25,47.92,364.56,4.86,43.66,10.74,95.18,17.5,146.27,3.43,25.94,7.05,51.59,10.75,76.25,1.28,8.52,3.33,17.62,5.5,27.26,4.17,18.49,8.47,37.61,7.55,54.17-.5,8.92-2.86,18.25-5.15,27.26-1.94,7.66-3.95,15.58-4.81,23.22-2.58,22.9-2.9,45.63-2.9,62.87,0,26,1.05,52.42,2.06,77.98.68,17.11,1.38,34.8,1.76,52.2,2.22,101.27-5.9,206.03-79.72,286.15Z"/>
      <path class="cls-2" d="M103.5,1198.78l-1.04-.83c63.8-80.38,73.52-180.2,74.53-276.09.19-17.7.06-35.7-.05-53.11-.17-24.64-.34-50.13.36-75.19.54-19.3,3.59-38.84,6.54-57.73,2.99-19.13,6.08-38.92,6.46-58.11.67-33.23-6.17-69-12.78-103.6-3.47-18.15-7.05-36.91-9.36-54.59-6.92-52.87-13.15-106.39-18.34-151.77C135.62,243.36,121.25,121.68,101.79.84l1.31-.21c19.47,120.87,33.83,242.56,48.04,366.99,5.18,45.37,11.41,98.89,18.33,151.75,2.31,17.64,5.73,35.55,9.35,54.51,6.62,34.66,13.47,70.51,12.8,103.87-.39,19.28-3.48,39.11-6.48,58.29-2.94,18.86-5.99,38.35-6.52,57.56-.7,25.04-.53,50.51-.36,75.14.12,17.41.24,35.42.05,53.13-1.01,96.13-10.78,196.22-74.82,276.91Z"/>
      <path class="cls-2" d="M83.07,1198.7l-1.12-.72c50.79-78.5,63.48-167.8,66.91-277.73.51-16.29.82-32.86,1.12-48.89.48-25.71.98-52.29,2.31-78.41.93-18.28,4.13-36.85,7.22-54.8,3.15-18.33,6.41-37.28,7.19-55.65.72-17.16-3.09-36.04-6.79-54.3-1.96-9.69-3.81-18.84-5.02-27.73-3.43-25.2-6.88-51.76-10.24-78.93-6.27-50.69-11.92-100.98-17.09-147.78C114.86,258.82,100.47,128.56,81.43.8l1.32-.2c19.04,127.78,33.44,258.06,46.14,373,5.17,46.79,10.82,97.08,17.09,147.76,3.36,27.17,6.81,53.72,10.24,78.91,1.21,8.85,3.05,17.98,5,27.65,3.71,18.34,7.54,37.3,6.81,54.62-.78,18.46-4.04,37.45-7.2,55.82-3.08,17.91-6.27,36.44-7.2,54.64-1.33,26.1-1.83,52.67-2.31,78.37-.3,16.03-.61,32.61-1.12,48.91-1.35,43.15-4.12,94.04-14.42,144.27-10.64,51.88-27.88,95.76-52.71,134.14Z"/>
      <path class="cls-2" d="M62.64,1198.58l-1.2-.58c44.84-92,52.55-194.75,56.26-283.84.62-14.95,1.13-30.16,1.63-44.87.86-25.37,1.74-51.61,3.22-77.39.99-17.21,3.49-34.88,5.91-51.97,3-21.19,6.11-43.1,6.33-64.24.34-32.42-4.95-66.48-10.06-99.43-2.64-16.99-5.36-34.55-7.22-51.4-5.87-53.31-11.29-107.23-16.27-157.55C90.04,254.24,77.36,126.09,61.06.74l1.32-.17c16.31,125.37,28.99,253.53,40.18,366.61,4.98,50.32,10.4,104.22,16.27,157.53,1.85,16.82,4.58,34.37,7.21,51.34,5.12,33,10.42,67.12,10.08,99.65-.22,21.22-3.33,43.18-6.34,64.41-2.42,17.06-4.92,34.71-5.9,51.86-1.48,25.77-2.36,51.99-3.21,77.36-.5,14.71-1.01,29.92-1.63,44.88-3.71,89.22-11.44,192.14-56.39,284.37Z"/>
      <path class="cls-2" d="M42.18,1198.42l-1.27-.41c28.39-87.91,37.26-178.77,41.84-288.16.68-16.19,1.27-32.66,1.84-48.59.91-25.4,1.86-51.67,3.18-77.49.91-17.83,3.08-36.12,5.17-53.81,2.63-22.22,5.35-45.2,5.61-67.45.36-31.57-3.92-64.6-8.06-96.55-2.26-17.43-4.59-35.46-6.1-52.82-4.49-51.65-8.55-102.31-12.27-149.37l-.3-3.75C62.52,242.16,52.89,120.28,40.67.65l1.33-.14c12.22,119.65,21.85,241.53,31.17,359.4l.3,3.75c3.72,47.05,7.78,97.71,12.27,149.36,1.51,17.33,3.84,35.34,6.1,52.76,4.14,31.99,8.43,65.07,8.07,96.74-.25,22.32-2.98,45.33-5.62,67.59-2.09,17.67-4.26,35.94-5.16,53.73-1.32,25.81-2.26,52.07-3.18,77.47-.57,15.93-1.17,32.4-1.84,48.59-4.59,109.49-13.47,200.46-41.91,288.51Z"/>
      <path class="cls-2" d="M21.7,1198.23l-1.31-.21c16.28-100.8,21.05-204.39,23.78-301.31.98-34.76,2.84-70.27,4.65-104.62,2.66-50.71,5.42-103.14,5.39-154.34-.04-60.58-4.48-122.65-8.78-182.67-2.46-34.33-5-69.84-6.68-104.55l-.52-10.71C32.84,228.59,27.29,113.58,20.26.54l1.33-.08c7.03,113.05,12.58,228.07,17.95,339.31l.52,10.71c1.68,34.7,4.22,70.19,6.68,104.52,4.3,60.04,8.75,122.13,8.79,182.76.03,51.23-2.73,103.68-5.39,154.41-1.8,34.34-3.67,69.84-4.65,104.58-2.73,96.97-7.5,200.61-23.8,301.49Z"/>
    </g>
  </g>
</svg>