<svg width="720" height="326" viewBox="0 0 720 326" fill="none" xmlns="http://www.w3.org/2000/svg">
<rect x="82" y="100" width="556.744" height="126" rx="30" fill="#1F1F1F"/>
<path d="M116.08 144.2C115.2 144.2 114.433 144.033 113.78 143.7C113.14 143.367 112.64 142.887 112.28 142.26C111.933 141.62 111.76 140.867 111.76 140V133.4C111.76 132.52 111.933 131.767 112.28 131.14C112.64 130.513 113.14 130.033 113.78 129.7C114.433 129.367 115.2 129.2 116.08 129.2C116.96 129.2 117.72 129.373 118.36 129.72C119 130.053 119.493 130.533 119.84 131.16C120.187 131.787 120.36 132.533 120.36 133.4H118.56C118.56 132.573 118.34 131.94 117.9 131.5C117.473 131.047 116.867 130.82 116.08 130.82C115.293 130.82 114.673 131.04 114.22 131.48C113.78 131.92 113.56 132.553 113.56 133.38V140C113.56 140.827 113.78 141.467 114.22 141.92C114.673 142.373 115.293 142.6 116.08 142.6C116.867 142.6 117.473 142.373 117.9 141.92C118.34 141.467 118.56 140.827 118.56 140V138.2H115.6V136.56H120.36V140C120.36 140.853 120.187 141.6 119.84 142.24C119.493 142.867 119 143.353 118.36 143.7C117.72 144.033 116.96 144.2 116.08 144.2ZM123.692 144V142.36H127.592V134.64H124.192V133H129.392V142.36H133.092V144H123.692ZM128.292 131.02C127.852 131.02 127.506 130.907 127.252 130.68C126.999 130.453 126.872 130.147 126.872 129.76C126.872 129.36 126.999 129.047 127.252 128.82C127.506 128.58 127.852 128.46 128.292 128.46C128.732 128.46 129.079 128.58 129.332 128.82C129.586 129.047 129.712 129.36 129.712 129.76C129.712 130.147 129.586 130.453 129.332 130.68C129.079 130.907 128.732 131.02 128.292 131.02ZM141.184 144C140.238 144 139.498 143.747 138.964 143.24C138.444 142.733 138.184 142.02 138.184 141.1V134.64H135.084V133H138.184V129.9H139.984V133H144.384V134.64H139.984V141.1C139.984 141.94 140.384 142.36 141.184 142.36H144.184V144H141.184ZM147.817 144V129.4H149.617V133V135.1H149.997L149.617 135.52C149.617 134.653 149.877 133.987 150.397 133.52C150.917 133.04 151.637 132.8 152.557 132.8C153.663 132.8 154.543 133.14 155.197 133.82C155.85 134.5 156.177 135.427 156.177 136.6V144H154.377V136.8C154.377 136.013 154.163 135.407 153.737 134.98C153.323 134.54 152.757 134.32 152.037 134.32C151.29 134.32 150.697 134.553 150.257 135.02C149.83 135.487 149.617 136.147 149.617 137V144H147.817ZM163.949 144.2C162.682 144.2 161.669 143.827 160.909 143.08C160.149 142.32 159.769 141.293 159.769 140V133H161.569V140C161.569 140.827 161.782 141.473 162.209 141.94C162.635 142.393 163.215 142.62 163.949 142.62C164.695 142.62 165.282 142.393 165.709 141.94C166.149 141.473 166.369 140.827 166.369 140V133H168.169V140C168.169 141.293 167.782 142.32 167.009 143.08C166.235 143.827 165.215 144.2 163.949 144.2ZM176.601 144.2C175.694 144.2 174.968 143.96 174.421 143.48C173.874 142.987 173.601 142.32 173.601 141.48L173.961 141.9H173.601V144H171.801V129.4H173.601V132.6L173.561 135.1H173.961L173.601 135.52C173.601 134.693 173.874 134.033 174.421 133.54C174.981 133.047 175.708 132.8 176.601 132.8C177.708 132.8 178.594 133.167 179.261 133.9C179.928 134.633 180.261 135.633 180.261 136.9V140.12C180.261 141.373 179.928 142.367 179.261 143.1C178.594 143.833 177.708 144.2 176.601 144.2ZM176.001 142.64C176.761 142.64 177.361 142.413 177.801 141.96C178.241 141.507 178.461 140.853 178.461 140V137C178.461 136.147 178.241 135.493 177.801 135.04C177.361 134.587 176.761 134.36 176.001 134.36C175.268 134.36 174.681 134.593 174.241 135.06C173.814 135.527 173.601 136.173 173.601 137V140C173.601 140.827 173.814 141.473 174.241 141.94C174.681 142.407 175.268 142.64 176.001 142.64ZM198.345 144V135.74H195.145V134.1H198.345V132.2C198.345 131.333 198.619 130.653 199.165 130.16C199.712 129.653 200.465 129.4 201.425 129.4H204.645V131.04H201.425C201.012 131.04 200.692 131.14 200.465 131.34C200.252 131.527 200.145 131.813 200.145 132.2V134.1H204.645V135.74H200.145V144H198.345ZM211.938 144.2C211.071 144.2 210.311 144.027 209.658 143.68C209.018 143.333 208.518 142.847 208.158 142.22C207.811 141.58 207.638 140.84 207.638 140V137C207.638 136.147 207.811 135.407 208.158 134.78C208.518 134.153 209.018 133.667 209.658 133.32C210.311 132.973 211.071 132.8 211.938 132.8C212.804 132.8 213.558 132.973 214.198 133.32C214.851 133.667 215.351 134.153 215.698 134.78C216.058 135.407 216.238 136.147 216.238 137V138.94H209.398V140C209.398 140.867 209.618 141.533 210.058 142C210.498 142.453 211.124 142.68 211.938 142.68C212.631 142.68 213.191 142.56 213.618 142.32C214.044 142.067 214.304 141.693 214.398 141.2H216.198C216.078 142.12 215.624 142.853 214.838 143.4C214.064 143.933 213.098 144.2 211.938 144.2ZM214.478 137.74V137C214.478 136.133 214.258 135.467 213.818 135C213.391 134.533 212.764 134.3 211.938 134.3C211.124 134.3 210.498 134.533 210.058 135C209.618 135.467 209.398 136.133 209.398 137V137.58H214.618L214.478 137.74ZM225.13 144C224.183 144 223.443 143.747 222.91 143.24C222.39 142.733 222.13 142.02 222.13 141.1V134.64H219.03V133H222.13V129.9H223.93V133H228.33V134.64H223.93V141.1C223.93 141.94 224.33 142.36 225.13 142.36H228.13V144H225.13ZM236.002 144.2C235.122 144.2 234.349 144.033 233.682 143.7C233.029 143.367 232.522 142.887 232.162 142.26C231.802 141.62 231.622 140.867 231.622 140V137C231.622 136.12 231.802 135.367 232.162 134.74C232.522 134.113 233.029 133.633 233.682 133.3C234.349 132.967 235.122 132.8 236.002 132.8C237.269 132.8 238.289 133.14 239.062 133.82C239.835 134.5 240.242 135.427 240.282 136.6H238.482C238.442 135.893 238.202 135.353 237.762 134.98C237.335 134.593 236.749 134.4 236.002 134.4C235.215 134.4 234.589 134.627 234.122 135.08C233.655 135.52 233.422 136.153 233.422 136.98V140C233.422 140.827 233.655 141.467 234.122 141.92C234.589 142.373 235.215 142.6 236.002 142.6C236.749 142.6 237.335 142.407 237.762 142.02C238.202 141.633 238.442 141.093 238.482 140.4H240.282C240.242 141.573 239.835 142.5 239.062 143.18C238.289 143.86 237.269 144.2 236.002 144.2ZM243.754 144V129.4H245.554V133V135.1H245.934L245.554 135.52C245.554 134.653 245.814 133.987 246.334 133.52C246.854 133.04 247.574 132.8 248.494 132.8C249.601 132.8 250.481 133.14 251.134 133.82C251.787 134.5 252.114 135.427 252.114 136.6V144H250.314V136.8C250.314 136.013 250.101 135.407 249.674 134.98C249.261 134.54 248.694 134.32 247.974 134.32C247.227 134.32 246.634 134.553 246.194 135.02C245.767 135.487 245.554 136.147 245.554 137V144H243.754ZM271.978 144.2C271.098 144.2 270.325 144.033 269.658 143.7C269.005 143.367 268.498 142.887 268.138 142.26C267.778 141.62 267.598 140.867 267.598 140V137C267.598 136.12 267.778 135.367 268.138 134.74C268.498 134.113 269.005 133.633 269.658 133.3C270.325 132.967 271.098 132.8 271.978 132.8C273.245 132.8 274.265 133.14 275.038 133.82C275.812 134.5 276.218 135.427 276.258 136.6H274.458C274.418 135.893 274.178 135.353 273.738 134.98C273.312 134.593 272.725 134.4 271.978 134.4C271.192 134.4 270.565 134.627 270.098 135.08C269.632 135.52 269.398 136.153 269.398 136.98V140C269.398 140.827 269.632 141.467 270.098 141.92C270.565 142.373 271.192 142.6 271.978 142.6C272.725 142.6 273.312 142.407 273.738 142.02C274.178 141.633 274.418 141.093 274.458 140.4H276.258C276.218 141.573 275.812 142.5 275.038 143.18C274.265 143.86 273.245 144.2 271.978 144.2ZM283.891 144.16C283.011 144.16 282.251 143.993 281.611 143.66C280.971 143.327 280.471 142.847 280.111 142.22C279.764 141.58 279.591 140.827 279.591 139.96V137.04C279.591 136.16 279.764 135.407 280.111 134.78C280.471 134.153 280.971 133.673 281.611 133.34C282.251 133.007 283.011 132.84 283.891 132.84C284.771 132.84 285.531 133.007 286.171 133.34C286.811 133.673 287.304 134.153 287.651 134.78C288.011 135.407 288.191 136.153 288.191 137.02V139.96C288.191 140.827 288.011 141.58 287.651 142.22C287.304 142.847 286.811 143.327 286.171 143.66C285.531 143.993 284.771 144.16 283.891 144.16ZM283.891 142.56C284.677 142.56 285.291 142.34 285.731 141.9C286.171 141.46 286.391 140.813 286.391 139.96V137.04C286.391 136.187 286.171 135.54 285.731 135.1C285.291 134.66 284.677 134.44 283.891 134.44C283.117 134.44 282.504 134.66 282.051 135.1C281.611 135.54 281.391 136.187 281.391 137.04V139.96C281.391 140.813 281.611 141.46 282.051 141.9C282.504 142.34 283.117 142.56 283.891 142.56ZM291.203 144V133H292.783V134.32H293.143L292.863 134.8C292.863 134.187 293.023 133.7 293.343 133.34C293.676 132.98 294.123 132.8 294.683 132.8C295.296 132.8 295.769 133.027 296.103 133.48C296.436 133.933 296.603 134.573 296.603 135.4L296.063 134.32H296.903L296.523 134.8C296.523 134.187 296.689 133.7 297.023 133.34C297.369 132.98 297.823 132.8 298.383 132.8C299.076 132.8 299.609 133.06 299.983 133.58C300.369 134.1 300.563 134.787 300.563 135.64V144H298.903V135.62C298.903 135.167 298.803 134.813 298.603 134.56C298.416 134.307 298.136 134.18 297.763 134.18C297.403 134.18 297.116 134.307 296.903 134.56C296.703 134.8 296.603 135.147 296.603 135.6V144H295.163V135.62C295.163 135.153 295.056 134.8 294.843 134.56C294.643 134.307 294.356 134.18 293.983 134.18C293.609 134.18 293.329 134.307 293.143 134.56C292.956 134.8 292.863 135.147 292.863 135.6V144H291.203ZM303.715 147.6V133H305.515V135.1H305.875L305.515 135.52C305.515 134.68 305.788 134.02 306.335 133.54C306.895 133.047 307.628 132.8 308.535 132.8C309.642 132.8 310.522 133.167 311.175 133.9C311.842 134.62 312.175 135.613 312.175 136.88V140.1C312.175 140.94 312.022 141.667 311.715 142.28C311.422 142.893 311.002 143.367 310.455 143.7C309.922 144.033 309.282 144.2 308.535 144.2C307.642 144.2 306.915 143.953 306.355 143.46C305.795 142.967 305.515 142.307 305.515 141.48L305.875 141.9H305.475L305.515 144.4V147.6H303.715ZM307.935 142.64C308.695 142.64 309.288 142.413 309.715 141.96C310.155 141.507 310.375 140.853 310.375 140V137C310.375 136.147 310.155 135.493 309.715 135.04C309.288 134.587 308.695 134.36 307.935 134.36C307.202 134.36 306.615 134.593 306.175 135.06C305.735 135.527 305.515 136.173 305.515 137V140C305.515 140.827 305.735 141.473 306.175 141.94C306.615 142.407 307.202 142.64 307.935 142.64ZM319.867 144.16C318.987 144.16 318.227 143.993 317.587 143.66C316.947 143.327 316.447 142.847 316.087 142.22C315.741 141.58 315.567 140.827 315.567 139.96V137.04C315.567 136.16 315.741 135.407 316.087 134.78C316.447 134.153 316.947 133.673 317.587 133.34C318.227 133.007 318.987 132.84 319.867 132.84C320.747 132.84 321.507 133.007 322.147 133.34C322.787 133.673 323.281 134.153 323.627 134.78C323.987 135.407 324.167 136.153 324.167 137.02V139.96C324.167 140.827 323.987 141.58 323.627 142.22C323.281 142.847 322.787 143.327 322.147 143.66C321.507 143.993 320.747 144.16 319.867 144.16ZM319.867 142.56C320.654 142.56 321.267 142.34 321.707 141.9C322.147 141.46 322.367 140.813 322.367 139.96V137.04C322.367 136.187 322.147 135.54 321.707 135.1C321.267 134.66 320.654 134.44 319.867 134.44C319.094 134.44 318.481 134.66 318.027 135.1C317.587 135.54 317.367 136.187 317.367 137.04V139.96C317.367 140.813 317.587 141.46 318.027 141.9C318.481 142.34 319.094 142.56 319.867 142.56ZM327.699 144V133H329.499V135.1H329.879L329.499 135.52C329.499 134.653 329.759 133.987 330.279 133.52C330.799 133.04 331.519 132.8 332.439 132.8C333.546 132.8 334.426 133.14 335.079 133.82C335.733 134.5 336.059 135.427 336.059 136.6V144H334.259V136.8C334.259 136.013 334.046 135.413 333.619 135C333.206 134.573 332.639 134.36 331.919 134.36C331.173 134.36 330.579 134.587 330.139 135.04C329.713 135.493 329.499 136.147 329.499 137V144H327.699ZM343.852 144.2C342.985 144.2 342.225 144.027 341.572 143.68C340.932 143.333 340.432 142.847 340.072 142.22C339.725 141.58 339.552 140.84 339.552 140V137C339.552 136.147 339.725 135.407 340.072 134.78C340.432 134.153 340.932 133.667 341.572 133.32C342.225 132.973 342.985 132.8 343.852 132.8C344.718 132.8 345.472 132.973 346.112 133.32C346.765 133.667 347.265 134.153 347.612 134.78C347.972 135.407 348.152 136.147 348.152 137V138.94H341.312V140C341.312 140.867 341.532 141.533 341.972 142C342.412 142.453 343.038 142.68 343.852 142.68C344.545 142.68 345.105 142.56 345.532 142.32C345.958 142.067 346.218 141.693 346.312 141.2H348.112C347.992 142.12 347.538 142.853 346.752 143.4C345.978 143.933 345.012 144.2 343.852 144.2ZM346.392 137.74V137C346.392 136.133 346.172 135.467 345.732 135C345.305 134.533 344.678 134.3 343.852 134.3C343.038 134.3 342.412 134.533 341.972 135C341.532 135.467 341.312 136.133 341.312 137V137.58H346.532L346.392 137.74ZM351.684 144V133H353.484V135.1H353.864L353.484 135.52C353.484 134.653 353.744 133.987 354.264 133.52C354.784 133.04 355.504 132.8 356.424 132.8C357.53 132.8 358.41 133.14 359.064 133.82C359.717 134.5 360.044 135.427 360.044 136.6V144H358.244V136.8C358.244 136.013 358.03 135.413 357.604 135C357.19 134.573 356.624 134.36 355.904 134.36C355.157 134.36 354.564 134.587 354.124 135.04C353.697 135.493 353.484 136.147 353.484 137V144H351.684ZM369.036 144C368.089 144 367.349 143.747 366.816 143.24C366.296 142.733 366.036 142.02 366.036 141.1V134.64H362.936V133H366.036V129.9H367.836V133H372.236V134.64H367.836V141.1C367.836 141.94 368.236 142.36 369.036 142.36H372.036V144H369.036ZM391.18 144.2C390.087 144.2 389.2 143.833 388.52 143.1C387.854 142.367 387.52 141.373 387.52 140.12V136.9C387.52 135.633 387.854 134.633 388.52 133.9C389.187 133.167 390.074 132.8 391.18 132.8C392.087 132.8 392.814 133.047 393.36 133.54C393.907 134.033 394.18 134.693 394.18 135.52L393.82 135.1H394.22L394.18 132.6V129.4H395.98V144H394.18V141.9H393.82L394.18 141.48C394.18 142.32 393.907 142.987 393.36 143.48C392.814 143.96 392.087 144.2 391.18 144.2ZM391.78 142.64C392.527 142.64 393.114 142.407 393.54 141.94C393.967 141.473 394.18 140.827 394.18 140V137C394.18 136.173 393.967 135.527 393.54 135.06C393.114 134.593 392.527 134.36 391.78 134.36C391.02 134.36 390.42 134.587 389.98 135.04C389.54 135.493 389.32 136.147 389.32 137V140C389.32 140.853 389.54 141.507 389.98 141.96C390.42 142.413 391.02 142.64 391.78 142.64ZM403.813 144.16C402.933 144.16 402.173 143.993 401.533 143.66C400.893 143.327 400.393 142.847 400.033 142.22C399.686 141.58 399.513 140.827 399.513 139.96V137.04C399.513 136.16 399.686 135.407 400.033 134.78C400.393 134.153 400.893 133.673 401.533 133.34C402.173 133.007 402.933 132.84 403.813 132.84C404.693 132.84 405.453 133.007 406.093 133.34C406.733 133.673 407.226 134.153 407.573 134.78C407.933 135.407 408.113 136.153 408.113 137.02V139.96C408.113 140.827 407.933 141.58 407.573 142.22C407.226 142.847 406.733 143.327 406.093 143.66C405.453 143.993 404.693 144.16 403.813 144.16ZM403.813 142.56C404.599 142.56 405.213 142.34 405.653 141.9C406.093 141.46 406.313 140.813 406.313 139.96V137.04C406.313 136.187 406.093 135.54 405.653 135.1C405.213 134.66 404.599 134.44 403.813 134.44C403.039 134.44 402.426 134.66 401.973 135.1C401.533 135.54 401.313 136.187 401.313 137.04V139.96C401.313 140.813 401.533 141.46 401.973 141.9C402.426 142.34 403.039 142.56 403.813 142.56ZM412.265 144L410.505 133H412.105L413.205 140.8C413.245 141.093 413.285 141.413 413.325 141.76C413.378 142.093 413.418 142.373 413.445 142.6C413.471 142.373 413.511 142.093 413.565 141.76C413.631 141.413 413.685 141.093 413.725 140.8L414.945 133H416.665L417.885 140.8C417.925 141.093 417.971 141.413 418.025 141.76C418.091 142.093 418.138 142.373 418.165 142.6C418.191 142.373 418.231 142.093 418.285 141.76C418.351 141.413 418.405 141.093 418.445 140.8L419.585 133H421.105L419.265 144H417.285L416.105 136.4C416.051 136.027 415.991 135.653 415.925 135.28C415.858 134.907 415.811 134.613 415.785 134.4C415.758 134.613 415.718 134.907 415.665 135.28C415.611 135.653 415.551 136.027 415.485 136.4L414.245 144H412.265ZM423.637 144V133H425.437V135.1H425.817L425.437 135.52C425.437 134.653 425.697 133.987 426.217 133.52C426.737 133.04 427.457 132.8 428.377 132.8C429.484 132.8 430.364 133.14 431.017 133.82C431.67 134.5 431.997 135.427 431.997 136.6V144H430.197V136.8C430.197 136.013 429.984 135.413 429.557 135C429.144 134.573 428.577 134.36 427.857 134.36C427.11 134.36 426.517 134.587 426.077 135.04C425.65 135.493 425.437 136.147 425.437 137V144H423.637ZM439.149 139.7L438.729 131.8V129.4H440.849V131.8L440.429 139.7H439.149ZM439.489 144.1C439.142 144.1 438.856 143.987 438.629 143.76C438.402 143.533 438.289 143.247 438.289 142.9C438.289 142.553 438.402 142.267 438.629 142.04C438.856 141.813 439.142 141.7 439.489 141.7H440.089C440.476 141.7 440.769 141.813 440.969 142.04C441.182 142.253 441.289 142.533 441.289 142.88C441.289 143.227 441.176 143.52 440.949 143.76C440.722 143.987 440.436 144.1 440.089 144.1H439.489ZM458.773 144L462.573 129.4H464.993L468.773 144H466.953L465.993 140.12H461.573L460.613 144H458.773ZM461.933 138.6H465.613L464.493 134.1C464.28 133.247 464.113 132.533 463.993 131.96C463.873 131.387 463.8 131.013 463.773 130.84C463.747 131.013 463.673 131.387 463.553 131.96C463.433 132.533 463.267 133.24 463.053 134.08L461.933 138.6ZM475.846 144.2C474.966 144.2 474.192 144.033 473.526 143.7C472.872 143.367 472.366 142.887 472.006 142.26C471.646 141.62 471.466 140.867 471.466 140V137C471.466 136.12 471.646 135.367 472.006 134.74C472.366 134.113 472.872 133.633 473.526 133.3C474.192 132.967 474.966 132.8 475.846 132.8C477.112 132.8 478.132 133.14 478.906 133.82C479.679 134.5 480.086 135.427 480.126 136.6H478.326C478.286 135.893 478.046 135.353 477.606 134.98C477.179 134.593 476.592 134.4 475.846 134.4C475.059 134.4 474.432 134.627 473.966 135.08C473.499 135.52 473.266 136.153 473.266 136.98V140C473.266 140.827 473.499 141.467 473.966 141.92C474.432 142.373 475.059 142.6 475.846 142.6C476.592 142.6 477.179 142.407 477.606 142.02C478.046 141.633 478.286 141.093 478.326 140.4H480.126C480.086 141.573 479.679 142.5 478.906 143.18C478.132 143.86 477.112 144.2 475.846 144.2ZM488.958 144C488.011 144 487.271 143.747 486.738 143.24C486.218 142.733 485.958 142.02 485.958 141.1V134.64H482.858V133H485.958V129.9H487.758V133H492.158V134.64H487.758V141.1C487.758 141.94 488.158 142.36 488.958 142.36H491.958V144H488.958ZM495.45 144V142.36H499.35V134.64H495.95V133H501.15V142.36H504.85V144H495.45ZM500.05 131.02C499.61 131.02 499.263 130.907 499.01 130.68C498.757 130.453 498.63 130.147 498.63 129.76C498.63 129.36 498.757 129.047 499.01 128.82C499.263 128.58 499.61 128.46 500.05 128.46C500.49 128.46 500.837 128.58 501.09 128.82C501.343 129.047 501.47 129.36 501.47 129.76C501.47 130.147 501.343 130.453 501.09 130.68C500.837 130.907 500.49 131.02 500.05 131.02ZM510.522 144L506.842 133H508.682L511.122 140.4C511.269 140.84 511.402 141.267 511.522 141.68C511.642 142.08 511.729 142.393 511.782 142.62C511.849 142.393 511.942 142.08 512.062 141.68C512.182 141.267 512.309 140.84 512.442 140.4L514.822 133H516.642L512.962 144H510.522ZM523.734 144.2C522.868 144.2 522.108 144.027 521.454 143.68C520.814 143.333 520.314 142.847 519.954 142.22C519.608 141.58 519.434 140.84 519.434 140V137C519.434 136.147 519.608 135.407 519.954 134.78C520.314 134.153 520.814 133.667 521.454 133.32C522.108 132.973 522.868 132.8 523.734 132.8C524.601 132.8 525.354 132.973 525.994 133.32C526.648 133.667 527.148 134.153 527.494 134.78C527.854 135.407 528.034 136.147 528.034 137V138.94H521.194V140C521.194 140.867 521.414 141.533 521.854 142C522.294 142.453 522.921 142.68 523.734 142.68C524.428 142.68 524.988 142.56 525.414 142.32C525.841 142.067 526.101 141.693 526.194 141.2H527.994C527.874 142.12 527.421 142.853 526.634 143.4C525.861 143.933 524.894 144.2 523.734 144.2ZM526.274 137.74V137C526.274 136.133 526.054 135.467 525.614 135C525.188 134.533 524.561 134.3 523.734 134.3C522.921 134.3 522.294 134.533 521.854 135C521.414 135.467 521.194 136.133 521.194 137V137.58H526.414L526.274 137.74ZM537.227 144C536.587 144 536.027 143.873 535.547 143.62C535.067 143.367 534.693 143.007 534.427 142.54C534.16 142.073 534.027 141.527 534.027 140.9V131.04H530.327V129.4H535.827V140.9C535.827 141.353 535.953 141.713 536.207 141.98C536.46 142.233 536.8 142.36 537.227 142.36H540.727V144H537.227ZM545.279 147.6L546.899 143.32L542.819 133H544.819L547.379 139.8C547.472 140.027 547.559 140.3 547.639 140.62C547.719 140.927 547.785 141.187 547.839 141.4C547.892 141.187 547.959 140.927 548.039 140.62C548.119 140.3 548.199 140.027 548.279 139.8L550.679 133H552.619L547.199 147.6H545.279ZM111.32 170V159H112.9V160.32H113.26L112.98 160.8C112.98 160.187 113.14 159.7 113.46 159.34C113.793 158.98 114.24 158.8 114.8 158.8C115.413 158.8 115.887 159.027 116.22 159.48C116.553 159.933 116.72 160.573 116.72 161.4L116.18 160.32H117.02L116.64 160.8C116.64 160.187 116.807 159.7 117.14 159.34C117.487 158.98 117.94 158.8 118.5 158.8C119.193 158.8 119.727 159.06 120.1 159.58C120.487 160.1 120.68 160.787 120.68 161.64V170H119.02V161.62C119.02 161.167 118.92 160.813 118.72 160.56C118.533 160.307 118.253 160.18 117.88 160.18C117.52 160.18 117.233 160.307 117.02 160.56C116.82 160.8 116.72 161.147 116.72 161.6V170H115.28V161.62C115.28 161.153 115.173 160.8 114.96 160.56C114.76 160.307 114.473 160.18 114.1 160.18C113.727 160.18 113.447 160.307 113.26 160.56C113.073 160.8 112.98 161.147 112.98 161.6V170H111.32ZM127.992 170.16C127.112 170.16 126.352 169.993 125.712 169.66C125.072 169.327 124.572 168.847 124.212 168.22C123.866 167.58 123.692 166.827 123.692 165.96V163.04C123.692 162.16 123.866 161.407 124.212 160.78C124.572 160.153 125.072 159.673 125.712 159.34C126.352 159.007 127.112 158.84 127.992 158.84C128.872 158.84 129.632 159.007 130.272 159.34C130.912 159.673 131.406 160.153 131.752 160.78C132.112 161.407 132.292 162.153 132.292 163.02V165.96C132.292 166.827 132.112 167.58 131.752 168.22C131.406 168.847 130.912 169.327 130.272 169.66C129.632 169.993 128.872 170.16 127.992 170.16ZM127.992 168.56C128.779 168.56 129.392 168.34 129.832 167.9C130.272 167.46 130.492 166.813 130.492 165.96V163.04C130.492 162.187 130.272 161.54 129.832 161.1C129.392 160.66 128.779 160.44 127.992 160.44C127.219 160.44 126.606 160.66 126.152 161.1C125.712 161.54 125.492 162.187 125.492 163.04V165.96C125.492 166.813 125.712 167.46 126.152 167.9C126.606 168.34 127.219 168.56 127.992 168.56ZM135.824 170V159H137.624V161.1H138.004L137.624 161.52C137.624 160.653 137.884 159.987 138.404 159.52C138.924 159.04 139.644 158.8 140.564 158.8C141.671 158.8 142.551 159.14 143.204 159.82C143.858 160.5 144.184 161.427 144.184 162.6V170H142.384V162.8C142.384 162.013 142.171 161.413 141.744 161C141.331 160.573 140.764 160.36 140.044 160.36C139.298 160.36 138.704 160.587 138.264 161.04C137.838 161.493 137.624 162.147 137.624 163V170H135.824ZM147.677 170V168.36H151.577V160.64H148.177V159H153.377V168.36H157.077V170H147.677ZM152.277 157.02C151.837 157.02 151.49 156.907 151.237 156.68C150.983 156.453 150.857 156.147 150.857 155.76C150.857 155.36 150.983 155.047 151.237 154.82C151.49 154.58 151.837 154.46 152.277 154.46C152.717 154.46 153.063 154.58 153.317 154.82C153.57 155.047 153.697 155.36 153.697 155.76C153.697 156.147 153.57 156.453 153.317 156.68C153.063 156.907 152.717 157.02 152.277 157.02ZM165.169 170C164.222 170 163.482 169.747 162.949 169.24C162.429 168.733 162.169 168.02 162.169 167.1V160.64H159.069V159H162.169V155.9H163.969V159H168.369V160.64H163.969V167.1C163.969 167.94 164.369 168.36 165.169 168.36H168.169V170H165.169ZM175.961 170.16C175.081 170.16 174.321 169.993 173.681 169.66C173.041 169.327 172.541 168.847 172.181 168.22C171.834 167.58 171.661 166.827 171.661 165.96V163.04C171.661 162.16 171.834 161.407 172.181 160.78C172.541 160.153 173.041 159.673 173.681 159.34C174.321 159.007 175.081 158.84 175.961 158.84C176.841 158.84 177.601 159.007 178.241 159.34C178.881 159.673 179.374 160.153 179.721 160.78C180.081 161.407 180.261 162.153 180.261 163.02V165.96C180.261 166.827 180.081 167.58 179.721 168.22C179.374 168.847 178.881 169.327 178.241 169.66C177.601 169.993 176.841 170.16 175.961 170.16ZM175.961 168.56C176.748 168.56 177.361 168.34 177.801 167.9C178.241 167.46 178.461 166.813 178.461 165.96V163.04C178.461 162.187 178.241 161.54 177.801 161.1C177.361 160.66 176.748 160.44 175.961 160.44C175.188 160.44 174.574 160.66 174.121 161.1C173.681 161.54 173.461 162.187 173.461 163.04V165.96C173.461 166.813 173.681 167.46 174.121 167.9C174.574 168.34 175.188 168.56 175.961 168.56ZM184.173 170V159H185.933V161.1H186.353L185.773 162.4C185.773 161.213 186.026 160.32 186.533 159.72C187.053 159.107 187.82 158.8 188.833 158.8C189.993 158.8 190.913 159.167 191.593 159.9C192.286 160.62 192.633 161.6 192.633 162.84V163.5H190.833V163C190.833 162.133 190.62 161.473 190.193 161.02C189.78 160.553 189.186 160.32 188.413 160.32C187.653 160.32 187.053 160.553 186.613 161.02C186.186 161.487 185.973 162.147 185.973 163V170H184.173ZM195.645 170V168.36H199.545V160.64H196.145V159H201.345V168.36H205.045V170H195.645ZM200.245 157.02C199.805 157.02 199.459 156.907 199.205 156.68C198.952 156.453 198.825 156.147 198.825 155.76C198.825 155.36 198.952 155.047 199.205 154.82C199.459 154.58 199.805 154.46 200.245 154.46C200.685 154.46 201.032 154.58 201.285 154.82C201.539 155.047 201.665 155.36 201.665 155.76C201.665 156.147 201.539 156.453 201.285 156.68C201.032 156.907 200.685 157.02 200.245 157.02ZM207.778 170V159H209.578V161.1H209.958L209.578 161.52C209.578 160.653 209.838 159.987 210.358 159.52C210.878 159.04 211.598 158.8 212.518 158.8C213.624 158.8 214.504 159.14 215.158 159.82C215.811 160.5 216.138 161.427 216.138 162.6V170H214.338V162.8C214.338 162.013 214.124 161.413 213.698 161C213.284 160.573 212.718 160.36 211.998 160.36C211.251 160.36 210.658 160.587 210.218 161.04C209.791 161.493 209.578 162.147 209.578 163V170H207.778ZM221.15 173.6V171.96H224.65C225.21 171.96 225.616 171.833 225.87 171.58C226.136 171.327 226.27 170.933 226.27 170.4V169L226.31 167H225.95L226.29 166.7C226.29 167.5 226.023 168.133 225.49 168.6C224.956 169.067 224.243 169.3 223.35 169.3C222.216 169.3 221.323 168.933 220.67 168.2C220.016 167.453 219.69 166.453 219.69 165.2V162.88C219.69 161.627 220.016 160.633 220.67 159.9C221.323 159.167 222.216 158.8 223.35 158.8C224.243 158.8 224.956 159.033 225.49 159.5C226.023 159.967 226.29 160.6 226.29 161.4L225.95 161.1H226.29V159H228.07V170.4C228.07 171.387 227.763 172.167 227.15 172.74C226.55 173.313 225.71 173.6 224.63 173.6H221.15ZM223.89 167.74C224.636 167.74 225.223 167.507 225.65 167.04C226.076 166.573 226.29 165.927 226.29 165.1V163C226.29 162.173 226.076 161.527 225.65 161.06C225.223 160.593 224.636 160.36 223.89 160.36C223.13 160.36 222.536 160.587 222.11 161.04C221.696 161.493 221.49 162.147 221.49 163V165.1C221.49 165.953 221.696 166.607 222.11 167.06C222.536 167.513 223.13 167.74 223.89 167.74ZM249.114 170C248.167 170 247.427 169.747 246.894 169.24C246.374 168.733 246.114 168.02 246.114 167.1V160.64H243.014V159H246.114V155.9H247.914V159H252.314V160.64H247.914V167.1C247.914 167.94 248.314 168.36 249.114 168.36H252.114V170H249.114ZM255.746 170V155.4H257.546V159V161.1H257.926L257.546 161.52C257.546 160.653 257.806 159.987 258.326 159.52C258.846 159.04 259.566 158.8 260.486 158.8C261.593 158.8 262.473 159.14 263.126 159.82C263.78 160.5 264.106 161.427 264.106 162.6V170H262.306V162.8C262.306 162.013 262.093 161.407 261.666 160.98C261.253 160.54 260.686 160.32 259.966 160.32C259.22 160.32 258.626 160.553 258.186 161.02C257.76 161.487 257.546 162.147 257.546 163V170H255.746ZM271.898 170.2C271.032 170.2 270.272 170.027 269.618 169.68C268.978 169.333 268.478 168.847 268.118 168.22C267.772 167.58 267.598 166.84 267.598 166V163C267.598 162.147 267.772 161.407 268.118 160.78C268.478 160.153 268.978 159.667 269.618 159.32C270.272 158.973 271.032 158.8 271.898 158.8C272.765 158.8 273.518 158.973 274.158 159.32C274.812 159.667 275.312 160.153 275.658 160.78C276.018 161.407 276.198 162.147 276.198 163V164.94H269.358V166C269.358 166.867 269.578 167.533 270.018 168C270.458 168.453 271.085 168.68 271.898 168.68C272.592 168.68 273.152 168.56 273.578 168.32C274.005 168.067 274.265 167.693 274.358 167.2H276.158C276.038 168.12 275.585 168.853 274.798 169.4C274.025 169.933 273.058 170.2 271.898 170.2ZM274.438 163.74V163C274.438 162.133 274.218 161.467 273.778 161C273.352 160.533 272.725 160.3 271.898 160.3C271.085 160.3 270.458 160.533 270.018 161C269.578 161.467 269.358 162.133 269.358 163V163.58H274.578L274.438 163.74ZM290.883 170L294.683 155.4H297.103L300.883 170H299.063L298.103 166.12H293.683L292.723 170H290.883ZM294.043 164.6H297.723L296.603 160.1C296.389 159.247 296.223 158.533 296.103 157.96C295.983 157.387 295.909 157.013 295.883 156.84C295.856 157.013 295.783 157.387 295.663 157.96C295.543 158.533 295.376 159.24 295.163 160.08L294.043 164.6ZM303.715 170V155.4H308.415C309.322 155.4 310.108 155.58 310.775 155.94C311.442 156.287 311.955 156.78 312.315 157.42C312.688 158.06 312.875 158.82 312.875 159.7C312.875 160.567 312.688 161.327 312.315 161.98C311.955 162.62 311.442 163.12 310.775 163.48C310.108 163.827 309.322 164 308.415 164H305.515V170H303.715ZM305.515 162.38H308.415C309.202 162.38 309.828 162.14 310.295 161.66C310.775 161.167 311.015 160.513 311.015 159.7C311.015 158.873 310.775 158.22 310.295 157.74C309.828 157.26 309.202 157.02 308.415 157.02H305.515V162.38ZM315.967 170V168.36H318.947V157.04H315.967V155.4H323.767V157.04H320.787V168.36H323.767V170H315.967ZM329.059 160.7L330.659 154.48H333.259L330.659 160.7H329.059ZM343.512 170.16C342.765 170.16 342.112 170.047 341.552 169.82C341.005 169.58 340.565 169.247 340.232 168.82C339.912 168.393 339.718 167.887 339.652 167.3H341.452C341.532 167.687 341.745 167.993 342.092 168.22C342.452 168.447 342.925 168.56 343.512 168.56H344.352C345.058 168.56 345.585 168.42 345.932 168.14C346.278 167.847 346.452 167.46 346.452 166.98C346.452 166.513 346.292 166.147 345.972 165.88C345.665 165.6 345.205 165.413 344.592 165.32L343.112 165.08C342.032 164.893 341.225 164.56 340.692 164.08C340.172 163.587 339.912 162.873 339.912 161.94C339.912 160.953 340.225 160.193 340.852 159.66C341.478 159.113 342.418 158.84 343.672 158.84H344.432C345.485 158.84 346.332 159.087 346.972 159.58C347.612 160.073 347.998 160.74 348.132 161.58H346.332C346.252 161.233 346.052 160.96 345.732 160.76C345.412 160.547 344.978 160.44 344.432 160.44H343.672C342.992 160.44 342.492 160.567 342.172 160.82C341.865 161.073 341.712 161.453 341.712 161.96C341.712 162.413 341.845 162.747 342.112 162.96C342.378 163.173 342.798 163.327 343.372 163.42L344.852 163.66C346.038 163.847 346.898 164.193 347.432 164.7C347.978 165.207 348.252 165.94 348.252 166.9C348.252 167.913 347.925 168.713 347.272 169.3C346.632 169.873 345.658 170.16 344.352 170.16H343.512ZM363.676 173.6V159H365.476V161.1H365.836L365.476 161.52C365.476 160.68 365.749 160.02 366.296 159.54C366.856 159.047 367.589 158.8 368.496 158.8C369.603 158.8 370.483 159.167 371.136 159.9C371.803 160.62 372.136 161.613 372.136 162.88V166.1C372.136 166.94 371.983 167.667 371.676 168.28C371.383 168.893 370.963 169.367 370.416 169.7C369.883 170.033 369.243 170.2 368.496 170.2C367.603 170.2 366.876 169.953 366.316 169.46C365.756 168.967 365.476 168.307 365.476 167.48L365.836 167.9H365.436L365.476 170.4V173.6H363.676ZM367.896 168.64C368.656 168.64 369.249 168.413 369.676 167.96C370.116 167.507 370.336 166.853 370.336 166V163C370.336 162.147 370.116 161.493 369.676 161.04C369.249 160.587 368.656 160.36 367.896 160.36C367.163 160.36 366.576 160.593 366.136 161.06C365.696 161.527 365.476 162.173 365.476 163V166C365.476 166.827 365.696 167.473 366.136 167.94C366.576 168.407 367.163 168.64 367.896 168.64ZM379.808 170.2C378.541 170.2 377.528 169.827 376.768 169.08C376.008 168.32 375.628 167.293 375.628 166V159H377.428V166C377.428 166.827 377.641 167.473 378.068 167.94C378.495 168.393 379.075 168.62 379.808 168.62C380.555 168.62 381.141 168.393 381.568 167.94C382.008 167.473 382.228 166.827 382.228 166V159H384.028V166C384.028 167.293 383.641 168.32 382.868 169.08C382.095 169.827 381.075 170.2 379.808 170.2ZM393.32 170C392.68 170 392.12 169.873 391.64 169.62C391.16 169.367 390.787 169.007 390.52 168.54C390.254 168.073 390.12 167.527 390.12 166.9V157.04H386.42V155.4H391.92V166.9C391.92 167.353 392.047 167.713 392.3 167.98C392.554 168.233 392.894 168.36 393.32 168.36H396.82V170H393.32ZM405.313 170C404.673 170 404.113 169.873 403.633 169.62C403.153 169.367 402.779 169.007 402.513 168.54C402.246 168.073 402.113 167.527 402.113 166.9V157.04H398.413V155.4H403.913V166.9C403.913 167.353 404.039 167.713 404.293 167.98C404.546 168.233 404.886 168.36 405.313 168.36H408.813V170H405.313ZM424.017 170V159H425.777V161.1H426.197L425.617 162.4C425.617 161.213 425.87 160.32 426.377 159.72C426.897 159.107 427.664 158.8 428.677 158.8C429.837 158.8 430.757 159.167 431.437 159.9C432.13 160.62 432.477 161.6 432.477 162.84V163.5H430.677V163C430.677 162.133 430.464 161.473 430.037 161.02C429.624 160.553 429.03 160.32 428.257 160.32C427.497 160.32 426.897 160.553 426.457 161.02C426.03 161.487 425.817 162.147 425.817 163V170H424.017ZM439.789 170.2C438.922 170.2 438.162 170.027 437.509 169.68C436.869 169.333 436.369 168.847 436.009 168.22C435.662 167.58 435.489 166.84 435.489 166V163C435.489 162.147 435.662 161.407 436.009 160.78C436.369 160.153 436.869 159.667 437.509 159.32C438.162 158.973 438.922 158.8 439.789 158.8C440.656 158.8 441.409 158.973 442.049 159.32C442.702 159.667 443.202 160.153 443.549 160.78C443.909 161.407 444.089 162.147 444.089 163V164.94H437.249V166C437.249 166.867 437.469 167.533 437.909 168C438.349 168.453 438.976 168.68 439.789 168.68C440.482 168.68 441.042 168.56 441.469 168.32C441.896 168.067 442.156 167.693 442.249 167.2H444.049C443.929 168.12 443.476 168.853 442.689 169.4C441.916 169.933 440.949 170.2 439.789 170.2ZM442.329 163.74V163C442.329 162.133 442.109 161.467 441.669 161C441.242 160.533 440.616 160.3 439.789 160.3C438.976 160.3 438.349 160.533 437.909 161C437.469 161.467 437.249 162.133 437.249 163V163.58H442.469L442.329 163.74ZM454.141 173.6V170.4L454.181 167.9H453.781L454.141 167.48C454.141 168.307 453.868 168.967 453.321 169.46C452.775 169.953 452.048 170.2 451.141 170.2C450.035 170.2 449.155 169.833 448.501 169.1C447.861 168.367 447.541 167.367 447.541 166.1V162.88C447.541 161.613 447.868 160.62 448.521 159.9C449.175 159.167 450.048 158.8 451.141 158.8C452.048 158.8 452.775 159.047 453.321 159.54C453.868 160.02 454.141 160.68 454.141 161.52L453.781 161.1H454.141V159H455.941V173.6H454.141ZM451.741 168.64C452.488 168.64 453.075 168.407 453.501 167.94C453.928 167.473 454.141 166.827 454.141 166V163C454.141 162.173 453.928 161.527 453.501 161.06C453.075 160.593 452.488 160.36 451.741 160.36C450.981 160.36 450.388 160.587 449.961 161.04C449.548 161.493 449.341 162.147 449.341 163V166C449.341 166.853 449.548 167.507 449.961 167.96C450.388 168.413 450.981 168.64 451.741 168.64ZM463.753 170.2C462.487 170.2 461.473 169.827 460.713 169.08C459.953 168.32 459.573 167.293 459.573 166V159H461.373V166C461.373 166.827 461.587 167.473 462.013 167.94C462.44 168.393 463.02 168.62 463.753 168.62C464.5 168.62 465.087 168.393 465.513 167.94C465.953 167.473 466.173 166.827 466.173 166V159H467.973V166C467.973 167.293 467.587 168.32 466.813 169.08C466.04 169.827 465.02 170.2 463.753 170.2ZM475.766 170.2C474.899 170.2 474.139 170.027 473.486 169.68C472.846 169.333 472.346 168.847 471.986 168.22C471.639 167.58 471.466 166.84 471.466 166V163C471.466 162.147 471.639 161.407 471.986 160.78C472.346 160.153 472.846 159.667 473.486 159.32C474.139 158.973 474.899 158.8 475.766 158.8C476.632 158.8 477.386 158.973 478.026 159.32C478.679 159.667 479.179 160.153 479.526 160.78C479.886 161.407 480.066 162.147 480.066 163V164.94H473.226V166C473.226 166.867 473.446 167.533 473.886 168C474.326 168.453 474.952 168.68 475.766 168.68C476.459 168.68 477.019 168.56 477.446 168.32C477.872 168.067 478.132 167.693 478.226 167.2H480.026C479.906 168.12 479.452 168.853 478.666 169.4C477.892 169.933 476.926 170.2 475.766 170.2ZM478.306 163.74V163C478.306 162.133 478.086 161.467 477.646 161C477.219 160.533 476.592 160.3 475.766 160.3C474.952 160.3 474.326 160.533 473.886 161C473.446 161.467 473.226 162.133 473.226 163V163.58H478.446L478.306 163.74ZM487.418 170.16C486.671 170.16 486.018 170.047 485.458 169.82C484.911 169.58 484.471 169.247 484.138 168.82C483.818 168.393 483.624 167.887 483.558 167.3H485.358C485.438 167.687 485.651 167.993 485.998 168.22C486.358 168.447 486.831 168.56 487.418 168.56H488.258C488.964 168.56 489.491 168.42 489.838 168.14C490.184 167.847 490.358 167.46 490.358 166.98C490.358 166.513 490.198 166.147 489.878 165.88C489.571 165.6 489.111 165.413 488.498 165.32L487.018 165.08C485.938 164.893 485.131 164.56 484.598 164.08C484.078 163.587 483.818 162.873 483.818 161.94C483.818 160.953 484.131 160.193 484.758 159.66C485.384 159.113 486.324 158.84 487.578 158.84H488.338C489.391 158.84 490.238 159.087 490.878 159.58C491.518 160.073 491.904 160.74 492.038 161.58H490.238C490.158 161.233 489.958 160.96 489.638 160.76C489.318 160.547 488.884 160.44 488.338 160.44H487.578C486.898 160.44 486.398 160.567 486.078 160.82C485.771 161.073 485.618 161.453 485.618 161.96C485.618 162.413 485.751 162.747 486.018 162.96C486.284 163.173 486.704 163.327 487.278 163.42L488.758 163.66C489.944 163.847 490.804 164.193 491.338 164.7C491.884 165.207 492.158 165.94 492.158 166.9C492.158 167.913 491.831 168.713 491.178 169.3C490.538 169.873 489.564 170.16 488.258 170.16H487.418ZM500.95 170C500.003 170 499.263 169.747 498.73 169.24C498.21 168.733 497.95 168.02 497.95 167.1V160.64H494.85V159H497.95V155.9H499.75V159H504.15V160.64H499.75V167.1C499.75 167.94 500.15 168.36 500.95 168.36H503.95V170H500.95ZM511.402 170.16C510.656 170.16 510.002 170.047 509.442 169.82C508.896 169.58 508.456 169.247 508.122 168.82C507.802 168.393 507.609 167.887 507.542 167.3H509.342C509.422 167.687 509.636 167.993 509.982 168.22C510.342 168.447 510.816 168.56 511.402 168.56H512.242C512.949 168.56 513.476 168.42 513.822 168.14C514.169 167.847 514.342 167.46 514.342 166.98C514.342 166.513 514.182 166.147 513.862 165.88C513.556 165.6 513.096 165.413 512.482 165.32L511.002 165.08C509.922 164.893 509.116 164.56 508.582 164.08C508.062 163.587 507.802 162.873 507.802 161.94C507.802 160.953 508.116 160.193 508.742 159.66C509.369 159.113 510.309 158.84 511.562 158.84H512.322C513.376 158.84 514.222 159.087 514.862 159.58C515.502 160.073 515.889 160.74 516.022 161.58H514.222C514.142 161.233 513.942 160.96 513.622 160.76C513.302 160.547 512.869 160.44 512.322 160.44H511.562C510.882 160.44 510.382 160.567 510.062 160.82C509.756 161.073 509.602 161.453 509.602 161.96C509.602 162.413 509.736 162.747 510.002 162.96C510.269 163.173 510.689 163.327 511.262 163.42L512.742 163.66C513.929 163.847 514.789 164.193 515.322 164.7C515.869 165.207 516.142 165.94 516.142 166.9C516.142 167.913 515.816 168.713 515.162 169.3C514.522 169.873 513.549 170.16 512.242 170.16H511.402ZM536.927 170C535.98 170 535.24 169.747 534.707 169.24C534.187 168.733 533.927 168.02 533.927 167.1V160.64H530.827V159H533.927V155.9H535.727V159H540.127V160.64H535.727V167.1C535.727 167.94 536.127 168.36 536.927 168.36H539.927V170H536.927ZM547.719 170.16C546.839 170.16 546.079 169.993 545.439 169.66C544.799 169.327 544.299 168.847 543.939 168.22C543.592 167.58 543.419 166.827 543.419 165.96V163.04C543.419 162.16 543.592 161.407 543.939 160.78C544.299 160.153 544.799 159.673 545.439 159.34C546.079 159.007 546.839 158.84 547.719 158.84C548.599 158.84 549.359 159.007 549.999 159.34C550.639 159.673 551.132 160.153 551.479 160.78C551.839 161.407 552.019 162.153 552.019 163.02V165.96C552.019 166.827 551.839 167.58 551.479 168.22C551.132 168.847 550.639 169.327 549.999 169.66C549.359 169.993 548.599 170.16 547.719 170.16ZM547.719 168.56C548.505 168.56 549.119 168.34 549.559 167.9C549.999 167.46 550.219 166.813 550.219 165.96V163.04C550.219 162.187 549.999 161.54 549.559 161.1C549.119 160.66 548.505 160.44 547.719 160.44C546.945 160.44 546.332 160.66 545.879 161.1C545.439 161.54 545.219 162.187 545.219 163.04V165.96C545.219 166.813 545.439 167.46 545.879 167.9C546.332 168.34 546.945 168.56 547.719 168.56ZM568.923 173.6V171.96H572.423C572.983 171.96 573.39 171.833 573.643 171.58C573.91 171.327 574.043 170.933 574.043 170.4V169L574.083 167H573.723L574.063 166.7C574.063 167.5 573.796 168.133 573.263 168.6C572.73 169.067 572.016 169.3 571.123 169.3C569.99 169.3 569.096 168.933 568.443 168.2C567.79 167.453 567.463 166.453 567.463 165.2V162.88C567.463 161.627 567.79 160.633 568.443 159.9C569.096 159.167 569.99 158.8 571.123 158.8C572.016 158.8 572.73 159.033 573.263 159.5C573.796 159.967 574.063 160.6 574.063 161.4L573.723 161.1H574.063V159H575.843V170.4C575.843 171.387 575.536 172.167 574.923 172.74C574.323 173.313 573.483 173.6 572.403 173.6H568.923ZM571.663 167.74C572.41 167.74 572.996 167.507 573.423 167.04C573.85 166.573 574.063 165.927 574.063 165.1V163C574.063 162.173 573.85 161.527 573.423 161.06C572.996 160.593 572.41 160.36 571.663 160.36C570.903 160.36 570.31 160.587 569.883 161.04C569.47 161.493 569.263 162.147 569.263 163V165.1C569.263 165.953 569.47 166.607 569.883 167.06C570.31 167.513 570.903 167.74 571.663 167.74ZM583.695 170.2C582.829 170.2 582.069 170.027 581.415 169.68C580.775 169.333 580.275 168.847 579.915 168.22C579.569 167.58 579.395 166.84 579.395 166V163C579.395 162.147 579.569 161.407 579.915 160.78C580.275 160.153 580.775 159.667 581.415 159.32C582.069 158.973 582.829 158.8 583.695 158.8C584.562 158.8 585.315 158.973 585.955 159.32C586.609 159.667 587.109 160.153 587.455 160.78C587.815 161.407 587.995 162.147 587.995 163V164.94H581.155V166C581.155 166.867 581.375 167.533 581.815 168C582.255 168.453 582.882 168.68 583.695 168.68C584.389 168.68 584.949 168.56 585.375 168.32C585.802 168.067 586.062 167.693 586.155 167.2H587.955C587.835 168.12 587.382 168.853 586.595 169.4C585.822 169.933 584.855 170.2 583.695 170.2ZM586.235 163.74V163C586.235 162.133 586.015 161.467 585.575 161C585.149 160.533 584.522 160.3 583.695 160.3C582.882 160.3 582.255 160.533 581.815 161C581.375 161.467 581.155 162.133 581.155 163V163.58H586.375L586.235 163.74ZM596.888 170C595.941 170 595.201 169.747 594.668 169.24C594.148 168.733 593.888 168.02 593.888 167.1V160.64H590.788V159H593.888V155.9H595.688V159H600.088V160.64H595.688V167.1C595.688 167.94 596.088 168.36 596.888 168.36H599.888V170H596.888ZM117.2 196C116.253 196 115.513 195.747 114.98 195.24C114.46 194.733 114.2 194.02 114.2 193.1V186.64H111.1V185H114.2V181.9H116V185H120.4V186.64H116V193.1C116 193.94 116.4 194.36 117.2 194.36H120.2V196H117.2ZM123.832 196V181.4H125.632V185V187.1H126.012L125.632 187.52C125.632 186.653 125.892 185.987 126.412 185.52C126.932 185.04 127.652 184.8 128.572 184.8C129.679 184.8 130.559 185.14 131.212 185.82C131.866 186.5 132.192 187.427 132.192 188.6V196H130.392V188.8C130.392 188.013 130.179 187.407 129.752 186.98C129.339 186.54 128.772 186.32 128.052 186.32C127.306 186.32 126.712 186.553 126.272 187.02C125.846 187.487 125.632 188.147 125.632 189V196H123.832ZM135.684 196V194.36H139.584V186.64H136.184V185H141.384V194.36H145.084V196H135.684ZM140.284 183.02C139.844 183.02 139.498 182.907 139.244 182.68C138.991 182.453 138.864 182.147 138.864 181.76C138.864 181.36 138.991 181.047 139.244 180.82C139.498 180.58 139.844 180.46 140.284 180.46C140.724 180.46 141.071 180.58 141.324 180.82C141.578 181.047 141.704 181.36 141.704 181.76C141.704 182.147 141.578 182.453 141.324 182.68C141.071 182.907 140.724 183.02 140.284 183.02ZM151.637 196.16C150.89 196.16 150.237 196.047 149.677 195.82C149.13 195.58 148.69 195.247 148.357 194.82C148.037 194.393 147.843 193.887 147.777 193.3H149.577C149.657 193.687 149.87 193.993 150.217 194.22C150.577 194.447 151.05 194.56 151.637 194.56H152.477C153.183 194.56 153.71 194.42 154.057 194.14C154.403 193.847 154.577 193.46 154.577 192.98C154.577 192.513 154.417 192.147 154.097 191.88C153.79 191.6 153.33 191.413 152.717 191.32L151.237 191.08C150.157 190.893 149.35 190.56 148.817 190.08C148.297 189.587 148.037 188.873 148.037 187.94C148.037 186.953 148.35 186.193 148.977 185.66C149.603 185.113 150.543 184.84 151.797 184.84H152.557C153.61 184.84 154.457 185.087 155.097 185.58C155.737 186.073 156.123 186.74 156.257 187.58H154.457C154.377 187.233 154.177 186.96 153.857 186.76C153.537 186.547 153.103 186.44 152.557 186.44H151.797C151.117 186.44 150.617 186.567 150.297 186.82C149.99 187.073 149.837 187.453 149.837 187.96C149.837 188.413 149.97 188.747 150.237 188.96C150.503 189.173 150.923 189.327 151.497 189.42L152.977 189.66C154.163 189.847 155.023 190.193 155.557 190.7C156.103 191.207 156.377 191.94 156.377 192.9C156.377 193.913 156.05 194.713 155.397 195.3C154.757 195.873 153.783 196.16 152.477 196.16H151.637ZM174.361 196V187.74H171.161V186.1H174.361V184.2C174.361 183.333 174.634 182.653 175.181 182.16C175.728 181.653 176.481 181.4 177.441 181.4H180.661V183.04H177.441C177.028 183.04 176.708 183.14 176.481 183.34C176.268 183.527 176.161 183.813 176.161 184.2V186.1H180.661V187.74H176.161V196H174.361ZM183.653 196V194.36H187.553V186.64H184.153V185H189.353V194.36H193.053V196H183.653ZM188.253 183.02C187.813 183.02 187.466 182.907 187.213 182.68C186.96 182.453 186.833 182.147 186.833 181.76C186.833 181.36 186.96 181.047 187.213 180.82C187.466 180.58 187.813 180.46 188.253 180.46C188.693 180.46 189.04 180.58 189.293 180.82C189.546 181.047 189.673 181.36 189.673 181.76C189.673 182.147 189.546 182.453 189.293 182.68C189.04 182.907 188.693 183.02 188.253 183.02ZM194.945 196L198.845 190.34L195.185 185H197.305L199.485 188.4C199.579 188.547 199.665 188.707 199.745 188.88C199.839 189.053 199.912 189.193 199.965 189.3C200.005 189.193 200.065 189.053 200.145 188.88C200.239 188.707 200.332 188.547 200.425 188.4L202.625 185H204.725L201.065 190.36L204.945 196H202.825L200.465 192.4C200.372 192.253 200.279 192.087 200.185 191.9C200.105 191.7 200.032 191.54 199.965 191.42C199.912 191.54 199.832 191.7 199.725 191.9C199.632 192.087 199.532 192.253 199.425 192.4L197.045 196H194.945ZM211.938 196.2C211.071 196.2 210.311 196.027 209.658 195.68C209.018 195.333 208.518 194.847 208.158 194.22C207.811 193.58 207.638 192.84 207.638 192V189C207.638 188.147 207.811 187.407 208.158 186.78C208.518 186.153 209.018 185.667 209.658 185.32C210.311 184.973 211.071 184.8 211.938 184.8C212.804 184.8 213.558 184.973 214.198 185.32C214.851 185.667 215.351 186.153 215.698 186.78C216.058 187.407 216.238 188.147 216.238 189V190.94H209.398V192C209.398 192.867 209.618 193.533 210.058 194C210.498 194.453 211.124 194.68 211.938 194.68C212.631 194.68 213.191 194.56 213.618 194.32C214.044 194.067 214.304 193.693 214.398 193.2H216.198C216.078 194.12 215.624 194.853 214.838 195.4C214.064 195.933 213.098 196.2 211.938 196.2ZM214.478 189.74V189C214.478 188.133 214.258 187.467 213.818 187C213.391 186.533 212.764 186.3 211.938 186.3C211.124 186.3 210.498 186.533 210.058 187C209.618 187.467 209.398 188.133 209.398 189V189.58H214.618L214.478 189.74ZM223.29 196.2C222.196 196.2 221.31 195.833 220.63 195.1C219.963 194.367 219.63 193.373 219.63 192.12V188.9C219.63 187.633 219.963 186.633 220.63 185.9C221.296 185.167 222.183 184.8 223.29 184.8C224.196 184.8 224.923 185.047 225.47 185.54C226.016 186.033 226.29 186.693 226.29 187.52L225.93 187.1H226.33L226.29 184.6V181.4H228.09V196H226.29V193.9H225.93L226.29 193.48C226.29 194.32 226.016 194.987 225.47 195.48C224.923 195.96 224.196 196.2 223.29 196.2ZM223.89 194.64C224.636 194.64 225.223 194.407 225.65 193.94C226.076 193.473 226.29 192.827 226.29 192V189C226.29 188.173 226.076 187.527 225.65 187.06C225.223 186.593 224.636 186.36 223.89 186.36C223.13 186.36 222.53 186.587 222.09 187.04C221.65 187.493 221.43 188.147 221.43 189V192C221.43 192.853 221.65 193.507 222.09 193.96C222.53 194.413 223.13 194.64 223.89 194.64ZM247.914 187.8C247.421 187.8 247.021 187.667 246.714 187.4C246.407 187.12 246.254 186.753 246.254 186.3C246.254 185.847 246.407 185.487 246.714 185.22C247.021 184.94 247.421 184.8 247.914 184.8C248.421 184.8 248.821 184.94 249.114 185.22C249.421 185.487 249.574 185.847 249.574 186.3C249.574 186.753 249.421 187.12 249.114 187.4C248.821 187.667 248.421 187.8 247.914 187.8ZM247.914 196.2C247.421 196.2 247.021 196.067 246.714 195.8C246.407 195.52 246.254 195.153 246.254 194.7C246.254 194.247 246.407 193.887 246.714 193.62C247.021 193.34 247.421 193.2 247.914 193.2C248.421 193.2 248.821 193.34 249.114 193.62C249.421 193.887 249.574 194.247 249.574 194.7C249.574 195.153 249.421 195.52 249.114 195.8C248.821 196.067 248.421 196.2 247.914 196.2ZM259.906 196.16C259.026 196.16 258.266 195.993 257.626 195.66C256.986 195.327 256.486 194.847 256.126 194.22C255.78 193.58 255.606 192.827 255.606 191.96V189.04C255.606 188.16 255.78 187.407 256.126 186.78C256.486 186.153 256.986 185.673 257.626 185.34C258.266 185.007 259.026 184.84 259.906 184.84C260.786 184.84 261.546 185.007 262.186 185.34C262.826 185.673 263.32 186.153 263.666 186.78C264.026 187.407 264.206 188.153 264.206 189.02V191.96C264.206 192.827 264.026 193.58 263.666 194.22C263.32 194.847 262.826 195.327 262.186 195.66C261.546 195.993 260.786 196.16 259.906 196.16ZM259.906 194.56C260.693 194.56 261.306 194.34 261.746 193.9C262.186 193.46 262.406 192.813 262.406 191.96V189.04C262.406 188.187 262.186 187.54 261.746 187.1C261.306 186.66 260.693 186.44 259.906 186.44C259.133 186.44 258.52 186.66 258.066 187.1C257.626 187.54 257.406 188.187 257.406 189.04V191.96C257.406 192.813 257.626 193.46 258.066 193.9C258.52 194.34 259.133 194.56 259.906 194.56ZM287.591 198.4C285.697 197.933 284.224 197.013 283.171 195.64C282.117 194.267 281.591 192.587 281.591 190.6V187C281.591 185.693 281.831 184.513 282.311 183.46C282.804 182.393 283.497 181.493 284.391 180.76C285.297 180.027 286.364 179.507 287.591 179.2V180.9C286.737 181.1 285.997 181.487 285.371 182.06C284.744 182.62 284.257 183.32 283.911 184.16C283.564 185 283.391 185.947 283.391 187V190.6C283.391 191.627 283.557 192.56 283.891 193.4C284.237 194.24 284.724 194.94 285.351 195.5C285.991 196.047 286.737 196.42 287.591 196.62V198.4ZM295.663 196.2C294.783 196.2 294.009 196.027 293.343 195.68C292.689 195.32 292.183 194.827 291.823 194.2C291.463 193.573 291.283 192.84 291.283 192H293.083C293.083 192.813 293.309 193.453 293.763 193.92C294.229 194.373 294.869 194.6 295.683 194.6C296.509 194.6 297.149 194.36 297.603 193.88C298.056 193.4 298.283 192.773 298.283 192V190.96C298.283 190.133 298.056 189.493 297.603 189.04C297.149 188.587 296.509 188.36 295.683 188.36H294.183V186.56L297.803 183.04H291.883V181.4H299.623V183.2L295.723 186.98V186.76C297.056 186.76 298.116 187.14 298.903 187.9C299.689 188.66 300.083 189.68 300.083 190.96V192C300.083 192.84 299.896 193.573 299.523 194.2C299.163 194.827 298.649 195.32 297.983 195.68C297.316 196.027 296.543 196.2 295.663 196.2ZM303.375 198.2L310.475 179.4H312.375L305.275 198.2H303.375ZM315.707 196V194.16L320.167 189.42C320.927 188.607 321.481 187.887 321.827 187.26C322.174 186.62 322.347 186.007 322.347 185.42C322.347 184.607 322.121 183.967 321.667 183.5C321.227 183.033 320.621 182.8 319.847 182.8C318.994 182.8 318.321 183.04 317.827 183.52C317.347 184 317.107 184.66 317.107 185.5H315.307C315.334 184.62 315.534 183.86 315.907 183.22C316.294 182.567 316.821 182.067 317.487 181.72C318.167 181.373 318.954 181.2 319.847 181.2C320.727 181.2 321.487 181.373 322.127 181.72C322.781 182.053 323.281 182.533 323.627 183.16C323.974 183.787 324.147 184.533 324.147 185.4C324.147 186.227 323.927 187.047 323.487 187.86C323.047 188.673 322.327 189.6 321.327 190.64L317.727 194.36H324.387V196H315.707ZM329.599 196L333.739 189.36L333.659 189.3C333.406 189.673 333.059 189.96 332.619 190.16C332.179 190.36 331.686 190.46 331.139 190.46C330.353 190.46 329.659 190.273 329.059 189.9C328.473 189.527 328.019 189 327.699 188.32C327.379 187.627 327.219 186.82 327.219 185.9C327.219 184.953 327.413 184.133 327.799 183.44C328.186 182.733 328.726 182.187 329.419 181.8C330.113 181.4 330.919 181.2 331.839 181.2C332.773 181.2 333.586 181.4 334.279 181.8C334.986 182.187 335.533 182.733 335.919 183.44C336.306 184.133 336.499 184.953 336.499 185.9C336.499 186.633 336.393 187.353 336.179 188.06C335.979 188.767 335.673 189.447 335.259 190.1L331.599 196H329.599ZM331.859 189C332.713 189 333.399 188.72 333.919 188.16C334.439 187.587 334.699 186.833 334.699 185.9C334.699 184.967 334.439 184.22 333.919 183.66C333.399 183.087 332.713 182.8 331.859 182.8C331.006 182.8 330.319 183.087 329.799 183.66C329.279 184.22 329.019 184.967 329.019 185.9C329.019 186.833 329.279 187.587 329.799 188.16C330.319 188.72 331.006 189 331.859 189ZM339.352 198.2L346.452 179.4H348.352L341.252 198.2H339.352ZM351.684 196V194.16L356.144 189.42C356.904 188.607 357.457 187.887 357.804 187.26C358.15 186.62 358.324 186.007 358.324 185.42C358.324 184.607 358.097 183.967 357.644 183.5C357.204 183.033 356.597 182.8 355.824 182.8C354.97 182.8 354.297 183.04 353.804 183.52C353.324 184 353.084 184.66 353.084 185.5H351.284C351.31 184.62 351.51 183.86 351.884 183.22C352.27 182.567 352.797 182.067 353.464 181.72C354.144 181.373 354.93 181.2 355.824 181.2C356.704 181.2 357.464 181.373 358.104 181.72C358.757 182.053 359.257 182.533 359.604 183.16C359.95 183.787 360.124 184.533 360.124 185.4C360.124 186.227 359.904 187.047 359.464 187.86C359.024 188.673 358.304 189.6 357.304 190.64L353.704 194.36H360.364V196H351.684ZM370.036 196V192.8H363.436V189.98L369.216 181.4H371.176L365.236 190.36V191.16H370.036V187.6H371.836V196H370.036ZM376.128 198.4V196.62C376.995 196.42 377.741 196.047 378.368 195.5C378.995 194.94 379.475 194.24 379.808 193.4C380.155 192.56 380.328 191.627 380.328 190.6V187C380.328 185.947 380.155 185 379.808 184.16C379.461 183.32 378.975 182.62 378.348 182.06C377.721 181.487 376.981 181.1 376.128 180.9V179.2C377.368 179.507 378.435 180.027 379.328 180.76C380.221 181.493 380.908 182.393 381.388 183.46C381.881 184.513 382.128 185.693 382.128 187V190.6C382.128 192.587 381.601 194.267 380.548 195.64C379.495 197.013 378.021 197.933 376.128 198.4Z" fill="white"/>
</svg>
